<?xml version="1.0" encoding="UTF-8" standalone="no"?>
<svg
   xmlns:dc="http://purl.org/dc/elements/1.1/"
   xmlns:cc="http://creativecommons.org/ns#"
   xmlns:rdf="http://www.w3.org/1999/02/22-rdf-syntax-ns#"
   xmlns:svg="http://www.w3.org/2000/svg"
   xmlns="http://www.w3.org/2000/svg"
   width="180.62222mm"
   height="40.922222mm"
   viewBox="0 0 180.62222 40.922222"
   version="1.1"
   id="svg6384">
  <defs
     id="defs6378" />
  <metadata
     id="metadata6381">
    <rdf:RDF>
      <cc:Work
         rdf:about="">
        <dc:title></dc:title>
      </cc:Work>
    </rdf:RDF>
  </metadata>
  <path
     id="path12"
     style="opacity:1;fill:#046db2;fill-opacity:1;stroke:none;stroke-width:0.264583px;stroke-linecap:butt;stroke-linejoin:miter;stroke-opacity:1"
     d="M 23.519494,0.8020185 0.5343343,5.0782432 V 35.279499 L 23.519494,40.357742 Z M 16.120463,10.981242 v 3.294372 l -5.339726,0.47284 v 2.863907 h 5.021399 v 3.294373 h -5.021399 v 3.682979 l 5.519043,0.566891 v 3.294888 L 7.6377769,27.38913 V 11.988103 Z" />
  <path
     id="rect47"
     style="opacity:1;fill:#046db2;fill-opacity:1;stroke:none;stroke-width:0.270656;stroke-linecap:round;stroke-linejoin:round;stop-color:#000000"
     d="m 25.513171,8.7880944 v 3.1517446 c 0.263953,0.0057 0.520643,0.01083 0.810287,0.01912 0.820821,0.02349 1.900284,1.152657 2.409154,2.031917 0.20465,0.35362 -0.566891,1.086755 -0.566891,1.086755 l -1.464508,-0.897619 c -0.370629,-0.0613 -0.77518,-0.106904 -1.188042,-0.115239 v 5.237407 l 2.180229,2.153874 c 0.86205,1.329649 -0.265744,0.948224 -2.180229,-0.430982 v 6.107122 c 0.465144,-0.04973 0.91269,-0.205891 1.240752,-0.537953 l 3.874699,-3.921724 c 2.070449,-1.34233 0.0051,2.129529 -3.54397,5.906098 -0.348086,0.370395 -0.87135,0.554114 -1.571481,0.638204 v 3.383256 h 13.418303 c 1.361091,0 2.456696,-0.975953 2.456696,-2.189014 V 10.977624 c 0,-1.2130692 -1.095605,-2.1895296 -2.456696,-2.1895296 z m 9.835575,3.1264236 c 0.847532,0.0035 1.856523,0.05517 3.032374,0.0863 0,0 0.101351,1.607873 0,5.150073 -0.0235,0.82082 -1.152657,1.900285 -2.031918,2.409155 -0.353618,0.20465 -1.086755,-0.56689 -1.086755,-0.56689 l 0.89762,-1.46451 c 0.161499,-0.97644 0.213868,-2.189259 -0.236162,-3.165699 -0.690599,-0.31734 -2.322332,-0.616968 -3.165181,0.236162 l -3.874699,3.921724 c -2.070449,1.34233 -0.0051,-2.129529 3.54397,-5.906099 0.543756,-0.578607 1.508199,-0.706071 2.920751,-0.700216 z m -3.619934,6.998539 c 0.725112,0.03304 3.282125,1.817286 5.996533,4.368209 0.925772,0.87001 0.696918,2.817525 0.613918,5.953126 0,0 -1.607357,0.101348 -5.149557,0 -0.820822,-0.0235 -1.900803,-1.152658 -2.409674,-2.031918 -0.20465,-0.353621 0.566891,-1.086239 0.566891,-1.086239 l 1.464511,0.89762 c 0.97644,0.161499 2.189258,0.213352 3.165698,-0.236678 0.317341,-0.6906 0.616968,-2.322332 -0.236162,-3.165182 l -3.921723,-3.874182 c -0.377532,-0.582314 -0.374174,-0.837684 -0.09043,-0.824756 z" />
  <path
     d="M 63.976422,31.891102 H 51.551411 V 8.8815833 h 11.90185 v 2.4389397 h -9.155279 v 7.6538 h 8.468641 v 2.4229 h -8.468641 v 8.054939 h 9.67844 z"
     style="font-style:normal;font-variant:normal;font-weight:normal;font-stretch:normal;font-size:31.747px;line-height:1.25;font-family:'Myanmar Text';-inkscape-font-specification:'Myanmar Text';letter-spacing:0px;word-spacing:0px;opacity:1;fill:#046db2;fill-opacity:1;stroke-width:1.2439"
     id="path22" />
  <path
     d="m 79.266664,15.392703 -5.538031,8.34587 5.441439,8.152529 h -3.074889 l -3.235899,-5.349079 q -0.305861,-0.49947 -0.72444,-1.25672 h -0.0644 q -0.0805,0.14501 -0.75664,1.25672 l -3.300288,5.349079 h -3.042682 l 5.61852,-8.088069 -5.37704,-8.41033 h 3.0749 l 3.18757,5.63911 q 0.35418,0.62835 0.692251,1.28893 h 0.0644 l 4.121319,-6.92804 z"
     style="font-style:normal;font-variant:normal;font-weight:normal;font-stretch:normal;font-size:31.747px;line-height:1.25;font-family:'Myanmar Text';-inkscape-font-specification:'Myanmar Text';letter-spacing:0px;word-spacing:0px;opacity:1;fill:#046db2;fill-opacity:1;stroke-width:1.2369"
     id="path24" />
  <path
     d="m 92.535013,31.155542 q -1.811769,1.11117 -4.29913,1.11117 -3.362529,0 -5.43532,-2.222338 -2.05744,-2.238002 -2.05744,-5.790621 0,-3.95953 2.22634,-6.35404 2.226331,-2.41014 5.941999,-2.41014 2.072791,0 3.654261,0.78251 v 2.62926 q -1.750359,-1.25203 -3.746381,-1.25203 -2.410579,0 -3.961339,1.76849 -1.535409,1.75284 -1.535409,4.61685 0,2.81705 1.443278,4.444681 1.45864,1.62764 3.899932,1.62764 2.05744,0 3.869209,-1.39288 z"
     style="font-style:normal;font-variant:normal;font-weight:normal;font-stretch:normal;font-size:31.747px;line-height:1.25;font-family:'Myanmar Text';-inkscape-font-specification:'Myanmar Text';letter-spacing:0px;word-spacing:0px;opacity:1;fill:#046db2;fill-opacity:1;stroke-width:1.19052"
     id="path26" />
  <path
     d="m 109.65846,31.891102 h -2.62745 v -9.454329 q 0,-5.12779 -3.81301,-5.12779 -1.92253,0 -3.236258,1.49027 -1.31372,1.47423 -1.31372,3.79775 v 9.294099 h -2.62745 V 7.5982634 h 2.62745 V 18.206353 h 0.0641 q 1.890488,-3.10872 5.383068,-3.10872 5.54329,0 5.54329,6.68213 z"
     style="font-style:normal;font-variant:normal;font-weight:normal;font-stretch:normal;font-size:31.747px;line-height:1.25;font-family:'Myanmar Text';-inkscape-font-specification:'Myanmar Text';letter-spacing:0px;word-spacing:0px;opacity:1;fill:#046db2;fill-opacity:1;stroke-width:1.23054"
     id="path28" />
  <path
     d="m 125.92208,31.891102 h -2.65215 v -2.504048 h -0.0647 q -1.73038,2.879658 -5.09407,2.879658 -2.47427,0 -3.8812,-1.267669 -1.39077,-1.267679 -1.39077,-3.36483 0,-4.49164 5.46602,-5.22721 l 4.9647,-0.67296 q 0,-4.08473 -3.41221,-4.08473 -2.99177,0 -5.40134,1.97194 v -2.62925 q 2.44193,-1.50243 5.62774,-1.50243 5.83796,0 5.83796,5.97842 z m -2.65215,-8.106869 -3.9944,0.53212 q -1.84356,0.25041 -2.78153,0.89207 -0.93795,0.62601 -0.93795,2.237999 0,1.173771 0.8571,1.924992 0.87327,0.73556 2.31255,0.73556 1.97294,0 3.2505,-1.33028 1.29373,-1.345922 1.29373,-3.396121 z"
     style="font-style:normal;font-variant:normal;font-weight:normal;font-stretch:normal;font-size:31.747px;line-height:1.25;font-family:'Myanmar Text';-inkscape-font-specification:'Myanmar Text';letter-spacing:0px;word-spacing:0px;opacity:1;fill:#046db2;fill-opacity:1;stroke-width:1.22181"
     id="path30" />
  <path
     d="m 143.45267,31.891102 h -2.60922 v -9.139779 q 0,-5.10201 -3.78655,-5.10201 -1.95692,0 -3.24562,1.45549 -1.27278,1.43982 -1.27278,3.64652 v 9.139779 h -2.60923 V 15.865173 h 2.60923 v 2.66056 h 0.0636 q 1.84555,-3.03616 5.34572,-3.03616 2.67286,0 4.08884,1.70589 1.41598,1.69023 1.41598,4.89855 z"
     style="font-style:normal;font-variant:normal;font-weight:normal;font-stretch:normal;font-size:31.747px;line-height:1.25;font-family:'Myanmar Text';-inkscape-font-specification:'Myanmar Text';letter-spacing:0px;word-spacing:0px;opacity:1;fill:#046db2;fill-opacity:1;stroke-width:1.21188"
     id="path32" />
  <path
     d="m 161.61648,30.607783 q 0,8.82678 -8.29117,8.82678 -2.91726,0 -5.09754,-1.126831 v -2.566649 q 2.65624,1.502431 5.06683,1.502431 5.80382,0 5.80382,-6.291431 v -1.752831 h -0.0614 q -1.79642,3.06746 -5.40461,3.06746 -2.93262,0 -4.72905,-2.12844 -1.78106,-2.144088 -1.78106,-5.743669 0,-4.08473 1.91926,-6.49489 1.9346,-2.41014 5.28178,-2.41014 3.17828,0 4.71368,2.59795 h 0.0614 v -2.22235 h 2.51806 z m -2.51806,-5.96278 v -2.3632 q 0,-1.90934 -1.27438,-3.27091 -1.25903,-1.36158 -3.14758,-1.36158 -2.33381,0 -3.65425,1.73719 -1.32045,1.72153 -1.32045,4.83594 0,2.67622 1.25903,4.2882 1.27438,1.596331 3.36253,1.596331 2.11885,0 3.4393,-1.533742 1.3358,-1.533719 1.3358,-3.928229 z"
     style="font-style:normal;font-variant:normal;font-weight:normal;font-stretch:normal;font-size:31.747px;line-height:1.25;font-family:'Myanmar Text';-inkscape-font-specification:'Myanmar Text';letter-spacing:0px;word-spacing:0px;opacity:1;fill:#046db2;fill-opacity:1;stroke-width:1.19052"
     id="path34" />
  <path
     d="m 179.35038,24.519803 h -11.10096 q 0.0614,2.6762 1.41257,4.13169 1.35115,1.455481 3.71568,1.455481 2.65624,0 4.88257,-1.784141 v 2.410151 q -2.0728,1.533728 -5.48138,1.533728 -3.33183,0 -5.23573,-2.175398 -1.90389,-2.191041 -1.90389,-6.150571 0,-3.74042 2.07279,-6.08797 2.08814,-2.3632 5.1743,-2.3632 3.08616,0 4.7751,2.03454 1.68895,2.03454 1.68895,5.64977 z m -2.57948,-2.17539 q -0.0154,-2.22235 -1.05943,-3.45872 -1.02872,-1.23638 -2.8712,-1.23638 -1.78107,0 -3.02474,1.29898 -1.24368,1.29897 -1.5354,3.39612 z"
     style="font-style:normal;font-variant:normal;font-weight:normal;font-stretch:normal;font-size:31.747px;line-height:1.25;font-family:'Myanmar Text';-inkscape-font-specification:'Myanmar Text';letter-spacing:0px;word-spacing:0px;opacity:1;fill:#046db2;fill-opacity:1;stroke-width:1.19052"
     id="path36" />
</svg>
