<?xml version="1.0" encoding="UTF-8" standalone="no"?>
<!-- Created with Inkscape (http://www.inkscape.org/) -->

<svg
   xmlns:dc="http://purl.org/dc/elements/1.1/"
   xmlns:cc="http://creativecommons.org/ns#"
   xmlns:rdf="http://www.w3.org/1999/02/22-rdf-syntax-ns#"
   xmlns:svg="http://www.w3.org/2000/svg"
   xmlns="http://www.w3.org/2000/svg"
   xmlns:sodipodi="http://sodipodi.sourceforge.net/DTD/sodipodi-0.dtd"
   xmlns:inkscape="http://www.inkscape.org/namespaces/inkscape"
   id="svg2"
   version="1.1"
   inkscape:version="0.47 r22583"
   width="95"
   height="30"
   xml:space="preserve"
   sodipodi:docname="Symantec_logo.svg"><metadata
     id="metadata8"><rdf:RDF><cc:Work
         rdf:about=""><dc:format>image/svg+xml</dc:format><dc:type
           rdf:resource="http://purl.org/dc/dcmitype/StillImage" /><dc:title></dc:title></cc:Work></rdf:RDF></metadata><defs
     id="defs6" /><sodipodi:namedview
     pagecolor="#ffffff"
     bordercolor="#666666"
     borderopacity="1"
     objecttolerance="10"
     gridtolerance="10"
     guidetolerance="10"
     inkscape:pageopacity="0"
     inkscape:pageshadow="2"
     inkscape:window-width="1116"
     inkscape:window-height="905"
     id="namedview4"
     showgrid="false"
     inkscape:zoom="7.6057972"
     inkscape:cx="50.206714"
     inkscape:cy="17.421254"
     inkscape:window-x="88"
     inkscape:window-y="35"
     inkscape:window-maximized="0"
     inkscape:current-layer="svg2"><inkscape:grid
       type="xygrid"
       id="grid3888"
       empspacing="5"
       visible="true"
       enabled="true"
       snapvisiblegridlinesonly="true" /></sodipodi:namedview><path
     style="fill:#fdb511;fill-opacity:1;stroke:none"
     d="m 25.187617,2.8125 0,0.75 0.75,0 0,-0.75 -0.75,0 z m 0,1.5 0,0.75 0.75,0 0,-0.75 -0.75,0 z m -2.25,0.75 0,0.75 0.75,0 0,-0.75 -0.75,0 z"
     id="rect3886" /><path
     id="path3095"
     d="m 13.125117,5.625 c -5.9552608,0 -10.7812498,4.82599 -10.7812498,10.78125 0,5.95526 4.825989,10.78125 10.7812498,10.78125 5.955261,0 10.78125,-4.82599 10.78125,-10.78125 0,-5.95526 -4.825989,-10.78125 -10.78125,-10.78125 z m 0,3.4375 c 4.052033,0 7.34375,3.29172 7.34375,7.34375 0,4.05203 -3.291717,7.34375 -7.34375,7.34375 -4.0520328,0 -7.3124998,-3.29172 -7.3124998,-7.34375 0,-4.05203 3.260467,-7.34375 7.3124998,-7.34375 z"
     style="fill:#fdb511;fill-opacity:1;stroke:none" /><g
     style="font-size:15px;font-style:normal;font-variant:normal;font-weight:bold;font-stretch:normal;text-align:start;line-height:125%;writing-mode:lr-tb;text-anchor:start;font-family:'BGFIGR+SymantecSans-Bold';-inkscape-font-specification:'BGFIGR+SymantecSans-Bold Bold'"
     id="text58"><path
       d="m 30.162616,22.111273 c -1.550002,0 -2.850001,-0.385 -3.9,-1.155 l 1.005,-1.65 c 0.839998,0.590002 1.789997,0.885002 2.85,0.885 0.519996,2e-6 0.929995,-0.1 1.23,-0.3 0.299995,-0.209998 0.449994,-0.499997 0.45,-0.87 -6e-6,-0.1 -0.01001,-0.189997 -0.03,-0.27 -0.02001,-0.08 -0.05501,-0.154996 -0.105,-0.225 -0.05,-0.08 -0.100005,-0.144996 -0.15,-0.195 -0.05001,-0.06 -0.130005,-0.119996 -0.24,-0.18 -0.100005,-0.06 -0.190005,-0.109996 -0.27,-0.15 -0.07,-0.04 -0.185005,-0.09 -0.345,-0.15 -0.160004,-0.06 -0.295004,-0.104996 -0.405,-0.135 -0.100004,-0.04 -0.255004,-0.095 -0.465,-0.165 -0.210003,-0.06999 -0.385003,-0.129995 -0.525,-0.18 -0.370003,-0.129995 -0.685002,-0.264995 -0.945,-0.405 -0.260002,-0.149995 -0.525002,-0.339994 -0.795,-0.57 -0.270001,-0.239994 -0.475001,-0.539994 -0.615,-0.9 -0.140001,-0.369993 -0.210001,-0.789993 -0.21,-1.26 -1e-6,-0.949991 0.329999,-1.68499 0.99,-2.205 0.659998,-0.529989 1.529997,-0.794989 2.61,-0.795 1.299995,1.1e-5 2.354994,0.240011 3.165,0.72 l -0.765,1.725 c -0.760006,-0.359991 -1.535005,-0.539991 -2.325,-0.54 -1.040003,9e-6 -1.560003,0.340009 -1.56,1.02 -3e-6,0.160008 0.03,0.300008 0.09,0.42 0.06,0.120007 0.124997,0.220007 0.195,0.3 0.07,0.08001 0.194997,0.160007 0.375,0.24 0.189996,0.08001 0.344996,0.140007 0.465,0.18 0.129996,0.04001 0.339996,0.105007 0.63,0.195 0.129995,0.04001 0.229995,0.07001 0.3,0.09 0.349995,0.110006 0.649995,0.215006 0.9,0.315 0.249994,0.100006 0.524994,0.245006 0.825,0.435 0.299993,0.180006 0.544993,0.385005 0.735,0.615 0.189993,0.230005 0.349992,0.520005 0.48,0.87 0.129992,0.350004 0.194992,0.740004 0.195,1.17 -8e-6,0.940002 -0.335008,1.695001 -1.005,2.265 -0.660006,0.57 -1.605005,0.855 -2.835,0.855"
       style=""
       id="path2820" /><path
       d="m 37.704569,22.321273 -2.835,-8.115 2.355,0 1.455,5.67 1.23,-5.67 2.205,0 -2.325,7.86 c -0.540004,1.819998 -1.665003,2.729997 -3.375,2.73 -0.400001,-3e-6 -0.825,-0.045 -1.275,-0.135 l 0.24,-1.59 c 0.399999,0.04 0.654999,0.06 0.765,0.06 0.409999,-1e-6 0.729998,-0.065 0.96,-0.195 0.229998,-0.120001 0.429998,-0.325 0.6,-0.615"
       style=""
       id="path2822" /><path
       d="m 49.551757,15.226273 c 0.749992,-0.799992 1.549991,-1.199992 2.4,-1.2 0.78999,8e-6 1.344989,0.270008 1.665,0.81 0.329988,0.540007 0.494988,1.215006 0.495,2.025 l 0,5.1 -2.28,0 0,-5.13 c -1e-5,-0.619994 -0.240009,-0.929994 -0.72,-0.93 -0.380008,6e-6 -0.805008,0.210006 -1.275,0.63 l 0,5.43 -2.28,0 0,-5.13 c -5e-6,-0.619994 -0.240005,-0.929994 -0.72,-0.93 -0.440004,6e-6 -0.865004,0.220006 -1.275,0.66 l 0,5.4 -2.28,0 0,-7.755 1.41,0 0.45,1.185 c 0.789996,-0.909992 1.634996,-1.364992 2.535,-1.365 0.899994,8e-6 1.524993,0.400008 1.875,1.2"
       style=""
       id="path2824" /><path
       d="m 59.807304,16.996273 0,-0.195 c -5e-6,-0.349994 -0.08,-0.604994 -0.24,-0.765 -0.150005,-0.159994 -0.415004,-0.239994 -0.795,-0.24 -0.590003,6e-6 -1.315003,0.200006 -2.175,0.6 l -0.78,-1.5 c 0.999998,-0.579992 2.049997,-0.869992 3.15,-0.87 1.029995,8e-6 1.804994,0.255008 2.325,0.765 0.529993,0.500007 0.794993,1.215006 0.795,2.145 l 0,5.025 -1.41,0 c -0.260006,-0.549999 -0.395005,-0.824999 -0.405,-0.825 -0.710005,0.65 -1.470004,0.975 -2.28,0.975 -0.690002,0 -1.270002,-0.2 -1.74,-0.6 -0.460001,-0.409999 -0.690001,-0.964998 -0.69,-1.665 -10e-7,-0.819997 0.264999,-1.419996 0.795,-1.8 0.619998,-0.459995 1.769997,-0.809995 3.45,-1.05 m 0,3.045 0,-1.635 c -0.990004,0.200004 -1.590003,0.420003 -1.8,0.66 -0.140003,0.150003 -0.210003,0.355003 -0.21,0.615 -3e-6,0.550002 0.264997,0.825002 0.795,0.825 0.439996,2e-6 0.844995,-0.154998 1.215,-0.465"
       style=""
       id="path2826" /><path
       d="m 63.906757,21.961273 0,-7.755 1.41,0 0.45,1.185 c 0.789996,-0.909992 1.654995,-1.364992 2.595,-1.365 1.479993,8e-6 2.219992,0.945007 2.22,2.835 l 0,5.1 -2.28,0 0,-5.13 c -5e-6,-0.619994 -0.260005,-0.929994 -0.78,-0.93 -0.480004,6e-6 -0.925004,0.220006 -1.335,0.66 l 0,5.4 -2.28,0"
       style=""
       id="path2828" /><path
       d="m 72.942148,15.766273 -1.14,0 0,-1.56 1.17,0 0.39,-2.205 1.86,0 0,2.205 1.65,0 0,1.56 -1.65,0 0,3.735 c -4e-6,0.340002 0.055,0.575002 0.165,0.705 0.109996,0.130002 0.334995,0.195002 0.675,0.195 0.189995,2e-6 0.454995,-0.05 0.795,-0.15 l 0.27,1.575 c -0.570006,0.19 -1.150005,0.285 -1.74,0.285 -1.630003,0 -2.445002,-0.829999 -2.445,-2.49 l 0,-3.855"
       style=""
       id="path2830" /><path
       d="m 80.417304,18.751273 c 0.05,0.530003 0.194997,0.920002 0.435,1.17 0.249996,0.250002 0.619996,0.375002 1.11,0.375 0.269995,2e-6 0.539995,-0.04 0.81,-0.12 0.279994,-0.08 0.484994,-0.154998 0.615,-0.225 0.139994,-0.07 0.344994,-0.179998 0.615,-0.33 l 0.9,1.44 c -0.310007,0.230001 -0.575007,0.410001 -0.795,0.54 -0.220007,0.12 -0.535006,0.235 -0.945,0.345 -0.410005,0.11 -0.865005,0.165 -1.365,0.165 -1.140003,0 -2.050002,-0.35 -2.73,-1.05 -0.670001,-0.709998 -1.005001,-1.674997 -1.005,-2.895 -10e-7,-1.219995 0.319999,-2.214994 0.96,-2.985 0.639998,-0.769992 1.519997,-1.154992 2.64,-1.155 1.149995,8e-6 2.009994,0.385008 2.58,1.155 0.569993,0.770006 0.854992,1.760005 0.855,2.97 l 0,0.6 -4.68,0 m 0,-1.335 2.355,0 c -5e-6,-1.169994 -0.375005,-1.754994 -1.125,-1.755 -0.360004,6e-6 -0.640004,0.140006 -0.84,0.42 -0.200003,0.270006 -0.330003,0.715005 -0.39,1.335"
       style=""
       id="path2832" /><path
       d="m 89.971132,22.111273 c -1.240003,0 -2.175002,-0.365 -2.805,-1.095 -0.620001,-0.739998 -0.930001,-1.704997 -0.93,-2.895 -10e-7,-1.189995 0.324999,-2.169994 0.975,-2.94 0.649998,-0.769992 1.569997,-1.154992 2.76,-1.155 1.049995,8e-6 1.904994,0.290008 2.565,0.87 l -1.065,1.515 c -0.270006,-0.199994 -0.505005,-0.334994 -0.705,-0.405 -0.200005,-0.07999 -0.460005,-0.119994 -0.78,-0.12 -0.930003,6e-6 -1.395003,0.735006 -1.395,2.205 -3e-6,1.440003 0.474997,2.160002 1.425,2.16 0.509995,2e-6 1.024995,-0.204998 1.545,-0.615 l 1.095,1.41 c -0.710006,0.71 -1.605005,1.065 -2.685,1.065"
       style=""
       id="path2834" /></g><path
     style="fill:#000000;fill-opacity:1;stroke:none"
     d="m 16.187617,11.0625 c -1.95762,2.44669 -2.450968,3.52102 -3.230863,5.49922 -0.884861,-1.78973 -1.940888,-3.02489 -3.7691368,-3.84297 -0.346336,-0.0884 -0.516645,-0.13968 -0.75,0.1875 -0.233355,0.32718 -0.09186,0.62155 0.1875,0.96875 0.732065,0.90983 1.5547388,1.75045 2.1249998,2.78125 0.668542,1.20845 1.500906,3.20015 1.78125,3.71875 0.222965,0.41246 0.762201,0.59375 0.96875,0.59375 1.106413,-0.13093 1.106798,-0.69341 1.317703,-1.66845 0.342006,-1.59892 0.784957,-3.25193 2.869797,-5.2378 l 0,-3 -1.5,0 z"
     id="path3876"
     sodipodi:nodetypes="cccssssccccc" /><path
     style="fill:#000000;fill-opacity:1;stroke:none"
     d="m 24.437617,3.5625 0,0.75 0.75,0 0,-0.75 -0.75,0 z m 0,0.75 -1.5,0 0,0.75 1.5,0 0,-0.75 z m -1.5,0.75 -0.75,0 0,1.5 0.75,0 0,-1.5 z m 0,1.5 0,0.75 0.75,0 0,-0.75 -0.75,0 z m 0.75,0 0.75,0 0,-0.75 -0.75,0 0,0.75 z m -0.75,0.75 -0.75,0 0,0.75 -0.75,0 0,-0.75 -1.5,0 0,0.75 -0.75,0 0,0.75 0.75,0 0,0.75 -0.75,0 0,-0.75 -0.75,0 0,0.75 -0.75,0 0,0.75 -0.75,0 0,3 1.5,0 0,-0.75 0.75,0 0,-0.75 0.75,0 0,-0.75 -0.75,0 0,-0.75 0.75,0 0,0.75 0.75,0 0,-0.75 0.75,0 0,-0.75 0.75,0 0,-0.75 0.75,0 0,-1.5 z m -1.5,0 0.75,0 0,-0.75 -0.75,0 0,0.75 z m 0,-0.75 0,-0.75 -0.75,0 0,0.75 0.75,0 z"
     id="rect3951" /></svg>