<svg width="160" height="64" viewBox="0 0 160 64" fill="none" xmlns="http://www.w3.org/2000/svg">
<path d="M48.8052 32.4261C47.1532 31.9581 46.3052 31.1491 46.3052 30.0261C46.3052 28.6351 47.5772 27.653 49.3232 27.653C51.1292 27.653 52.2722 28.613 52.3392 30.153H56.7452C56.6732 26.258 53.7272 23.644 49.3762 23.644C45.0252 23.644 41.8652 26.375 41.8652 30.144C41.8652 33.131 43.7652 35.226 47.5002 36.389L50.2003 37.1411C52.2003 37.7141 53.0283 38.4951 52.9813 39.8091C52.9513 41.3221 51.6272 42.3091 49.5812 42.3091C47.3552 42.3091 46.2432 40.987 46.1202 39.632H41.6553C41.7363 43.5271 44.9653 46.2031 49.5723 46.2031C53.2983 46.2031 57.3613 44.203 57.4263 39.833C57.5173 36.652 55.5043 34.433 51.4263 33.264L48.8052 32.4261Z" fill="#0033A1"/>
<path d="M66.1052 30.76C64.1023 30.816 62.2003 31.6509 60.8034 33.0873C59.4065 34.5238 58.625 36.4484 58.625 38.452C58.625 40.4557 59.4065 42.3803 60.8034 43.8167C62.2003 45.2531 64.1023 46.0881 66.1052 46.144C67.3402 46.144 69.4932 45.544 70.3672 44.211L70.6451 43.788V45.843H74.8011V31.08H70.6581V33.08L70.3802 32.687C69.0652 30.815 66.4022 30.76 66.1052 30.76ZM66.5491 42.186C66.0444 42.2108 65.5398 42.1328 65.0661 41.9568C64.5924 41.7807 64.1594 41.5102 63.7933 41.1617C63.4273 40.8133 63.1359 40.394 62.9368 39.9295C62.7376 39.465 62.6349 38.9649 62.6349 38.4595C62.6349 37.9541 62.7376 37.454 62.9368 36.9895C63.1359 36.525 63.4273 36.1058 63.7933 35.7573C64.1594 35.4088 64.5924 35.1384 65.0661 34.9623C65.5398 34.7862 66.0444 34.7082 66.5491 34.733C67.0436 34.7249 67.5349 34.8153 67.9941 34.999C68.4533 35.1826 68.8714 35.4558 69.2239 35.8026C69.5765 36.1495 69.8565 36.563 70.0477 37.0192C70.2388 37.4753 70.3372 37.965 70.3372 38.4595C70.3372 38.9541 70.2388 39.4437 70.0477 39.8999C69.8565 40.356 69.5765 40.7696 69.2239 41.1164C68.8714 41.4632 68.4533 41.7364 67.9941 41.9201C67.5349 42.1037 67.0436 42.1941 66.5491 42.186Z" fill="#0033A1"/>
<path d="M81.4211 31.083H77.2671V45.858H81.4211V31.083Z" fill="#0033A1"/>
<path d="M88.1002 23.9351H83.9272V45.8481H88.1002V23.9351Z" fill="#0033A1"/>
<path d="M99.4507 23.9131H90.4697V45.8531H94.9227V38.1751H99.4597C104.746 38.1751 106.635 34.3441 106.635 31.0571C106.625 26.1241 103.023 23.9131 99.4507 23.9131ZM99.2228 34.3391H94.9137V27.7711H99.3667C101.315 27.7711 102.196 29.6881 102.196 31.0481C102.219 31.4588 102.161 31.8702 102.025 32.2585C101.889 32.6467 101.677 33.0042 101.402 33.3102C101.127 33.6161 100.794 33.8646 100.422 34.0412C100.051 34.2178 99.6477 34.319 99.2367 34.3391H99.2228Z" fill="#0033A1"/>
<path d="M113.988 30.7599C112.469 30.7597 110.984 31.2102 109.721 32.0544C108.458 32.8986 107.473 34.0984 106.893 35.5022C106.312 36.906 106.16 38.4505 106.457 39.9403C106.755 41.4302 107.487 42.7984 108.563 43.8717C109.638 44.945 111.007 45.6753 112.497 45.97C113.988 46.2648 115.532 46.1108 116.935 45.5275C118.338 44.9443 119.536 43.958 120.378 42.6935C121.22 41.429 121.668 39.9431 121.665 38.4239C121.701 37.4067 121.527 36.3931 121.153 35.4462C120.78 34.4994 120.216 33.6396 119.495 32.9205C118.775 32.2014 117.914 31.6385 116.967 31.2667C116.019 30.895 115.005 30.7225 113.988 30.7599ZM113.988 42.0259C113.279 42.0302 112.584 41.8242 111.992 41.4338C111.399 41.0434 110.936 40.4862 110.66 39.8327C110.385 39.1791 110.309 38.4584 110.442 37.7618C110.576 37.0651 110.913 36.4237 111.411 35.9186C111.91 35.4135 112.546 35.0674 113.241 34.924C113.936 34.7806 114.657 34.8464 115.315 35.113C115.972 35.3797 116.536 35.8351 116.934 36.4219C117.333 37.0088 117.549 37.7006 117.554 38.4099C117.574 38.865 117.504 39.3196 117.348 39.7477C117.192 40.1757 116.954 40.5689 116.646 40.9047C116.338 41.2405 115.967 41.5123 115.554 41.7047C115.141 41.8971 114.694 42.0063 114.239 42.0259H113.988Z" fill="#0033A1"/>
<path d="M127.401 31.083H123.245V45.858H127.401V31.083Z" fill="#0033A1"/>
<path d="M134.251 33.1959L133.973 33.7249V31.0789H129.773V45.8479H133.946V38.0249C133.946 35.9249 134.964 34.8089 136.87 34.8089C138.587 34.8089 139.632 36.0159 139.632 37.9519V45.8409H143.817V36.9879C143.836 32.9679 141.931 30.7429 138.47 30.7429C137.613 30.7417 136.77 30.9672 136.028 31.3966C135.286 31.826 134.671 32.444 134.245 33.1879L134.251 33.1959Z" fill="#0033A1"/>
<path d="M79.3458 28.9689C79.8586 28.9701 80.3603 28.8192 80.7873 28.5353C81.2144 28.2515 81.5476 27.8473 81.745 27.374C81.9424 26.9007 81.995 26.3795 81.8962 25.8763C81.7974 25.3731 81.5516 24.9106 81.1899 24.547C80.8282 24.1835 80.3668 23.9354 79.8641 23.8341C79.3615 23.7328 78.84 23.7828 78.3657 23.9778C77.8915 24.1728 77.4857 24.504 77.1997 24.9296C76.9136 25.3553 76.7602 25.8561 76.7588 26.3689V26.3779C76.7579 26.7181 76.8259 27.0549 76.9588 27.368C77.1548 27.8411 77.4866 28.2456 77.9124 28.5304C78.3381 28.8152 78.8387 28.9674 79.3508 28.9679L79.3458 28.9689Z" fill="#0033A1"/>
<path d="M125.313 28.9689C125.826 28.9701 126.328 28.8192 126.755 28.5353C127.182 28.2515 127.515 27.8473 127.712 27.374C127.91 26.9007 127.962 26.3795 127.863 25.8763C127.765 25.3731 127.519 24.9106 127.157 24.547C126.795 24.1835 126.334 23.9354 125.831 23.8341C125.329 23.7328 124.807 23.7828 124.333 23.9778C123.859 24.1728 123.453 24.504 123.167 24.9296C122.881 25.3553 122.728 25.8561 122.726 26.3689V26.3779C122.724 26.7177 122.79 27.0545 122.921 27.368C123.117 27.8414 123.449 28.2462 123.874 28.5312C124.3 28.8161 124.801 28.9685 125.313 28.9689Z" fill="#0033A1"/>
<path d="M154.659 31.0681H151.751V25.3071H147.576V31.0681H144.794V34.5841H147.576V45.8481H151.749V34.5851H154.657L154.659 31.0681Z" fill="#0033A1"/>
<path d="M24.5139 15.719L28.5199 39.627H5.33594L24.5139 15.719Z" fill="#0033A1"/>
<path d="M24.4658 15.719L38.6658 39.627H28.4718L24.4658 15.719Z" fill="#CC27B0"/>
<path d="M5.33594 39.645H28.5209L29.9699 48.286L5.33594 39.645Z" fill="#0071CE"/>
<path d="M28.4678 39.645H38.6608L29.9168 48.286L28.4678 39.645Z" fill="#E17FD2"/>
<path d="M155.767 43.0292C156.008 43.1693 156.207 43.3731 156.34 43.6182C156.481 43.8765 156.553 44.1669 156.549 44.4612C156.553 44.7539 156.481 45.0427 156.34 45.2992C156.206 45.5425 156.008 45.7447 155.767 45.8842C155.515 46.0287 155.228 46.1023 154.937 46.0971C154.645 46.1019 154.357 46.0283 154.103 45.8842C153.861 45.7456 153.661 45.5433 153.526 45.2992C153.385 45.0427 153.313 44.7538 153.318 44.4612C153.314 44.1669 153.385 43.8765 153.526 43.6182C153.66 43.3723 153.86 43.1684 154.103 43.0292C154.357 42.885 154.645 42.8115 154.937 42.8162C155.228 42.811 155.515 42.8846 155.767 43.0292ZM155.89 45.4421C156.126 45.1695 156.256 44.8211 156.256 44.4607C156.256 44.1002 156.126 43.7518 155.89 43.4792C155.633 43.2324 155.29 43.0946 154.933 43.0946C154.576 43.0946 154.234 43.2324 153.976 43.4792C153.742 43.7524 153.613 44.1006 153.613 44.4607C153.613 44.8208 153.742 45.1689 153.976 45.4421C154.233 45.6881 154.576 45.8253 154.931 45.8253C155.287 45.8253 155.63 45.6881 155.887 45.4421H155.89ZM155.535 44.4421C155.452 44.5357 155.339 44.5978 155.216 44.6182L155.707 45.3182L155.29 45.3261L154.836 44.6262H154.648V45.3261H154.296V43.5631H155.057C155.213 43.5549 155.366 43.606 155.486 43.7062C155.539 43.7555 155.581 43.8158 155.609 43.883C155.637 43.9502 155.649 44.0226 155.646 44.0952C155.652 44.2178 155.613 44.3383 155.536 44.4342L155.535 44.4421ZM154.652 44.3422H155.036C155.103 44.3448 155.17 44.3247 155.224 44.2852C155.25 44.2647 155.27 44.2383 155.282 44.2084C155.295 44.1784 155.301 44.1457 155.298 44.1132C155.301 44.0812 155.295 44.0492 155.282 44.0198C155.269 43.9905 155.249 43.9649 155.224 43.9452C155.169 43.908 155.103 43.8894 155.036 43.8922H154.652V44.3422Z" fill="#0033A1"/>
</svg>
