<?xml version="1.0" encoding="utf-8"?>
<!-- Generator: Adobe Illustrator 22.1.0, SVG Export Plug-In . SVG Version: 6.00 Build 0)  -->
<svg version="1.1" id="Layer_1" xmlns="http://www.w3.org/2000/svg" xmlns:xlink="http://www.w3.org/1999/xlink" x="0px" y="0px"
	 viewBox="0 0 448 512" style="enable-background:new 0 0 448 512;" xml:space="preserve">
<path d="M437.2,403.5L320,215V64h8c13.3,0,24-10.7,24-24V24c0-13.3-10.7-24-24-24H120c-13.3,0-24,10.7-24,24v16
	c0,13.3,10.7,24,24,24h8v151L10.8,403.5C-18.5,450.6,15.3,512,70.9,512h306.2C432.8,512,466.5,450.5,437.2,403.5z M137.9,320
	l48.2-77.6c3.7-5.2,5.8-11.6,5.8-18.4V64h64v160c0,6.9,2.2,13.2,5.8,18.4l48.2,77.6H137.9z"/>
</svg>
