<svg width="494" height="61" viewBox="0 0 494 61" fill="none" xmlns="http://www.w3.org/2000/svg">
<path fill-rule="evenodd" clip-rule="evenodd" d="M66.8176 47.5574V13.4426H58.1194V34.0019C58.1194 38.5769 55.4648 41.062 51.1157 41.062C47.388 41.062 45.4676 38.9722 45.4676 35.4139V13.4426H36.7694V37.7296C36.7694 44.3944 40.7796 48.5741 48.8565 48.5741C53.7139 48.5741 57.0463 46.8796 58.8537 43.9426V47.5574H66.8176ZM123.299 47.5574V23.7222C123.243 16.662 119.176 12.313 111.89 12.313C107.428 12.313 103.982 14.0074 101.667 17.3398C99.8028 14.1204 96.5268 12.313 92.1778 12.313C87.7157 12.313 84.4398 13.9509 82.463 17.2269V13.4426H74.3861V47.5574H83.0843V26.5463C83.0843 22.5926 85.2306 19.7685 89.0713 19.7685C92.6861 19.7685 94.4935 21.9713 94.4935 26.3204V47.5574H103.192V26.5463C103.192 22.5926 105.394 19.7685 109.179 19.7685C112.963 19.7685 114.601 22.2537 114.601 26.3204V47.5574H123.299ZM184.356 47.5574H193.054V0.112963H184.356V47.5574ZM278.68 47.5574H287.378V13.4426H278.68V47.5574ZM287.491 8.30278H278.51V0H287.491V8.30278ZM310.761 41.175C314.037 41.175 316.466 39.7065 320.024 35.9222L325.785 40.6667C321.041 46.5407 316.805 48.5741 310.648 48.5741C302.741 48.5741 296.697 44.4509 294.325 37.4472V23.4398C296.754 16.4361 302.91 12.2565 310.874 12.2565C316.579 12.2565 320.815 14.0074 325.164 18.7519L319.742 24.1176C316.07 20.6722 313.755 19.6556 310.874 19.6556C306.92 19.6556 304.153 21.9148 302.854 25.4731V35.4139C304.096 38.9157 306.864 41.175 310.761 41.175ZM13.8052 25.6008C14.7889 25.8449 16.1436 26.181 17.8481 26.5463C24.8519 28.1278 28.6361 29.8222 30.1611 33.0417V41.6833C28.2972 45.9194 23.3833 48.5741 16.4361 48.5741C9.99722 48.5741 5.36574 46.9361 0 42.1352L4.97037 36.5435C7.45556 38.5769 9.43241 39.8759 11.1269 40.5537C12.8778 41.288 14.7417 41.6833 16.662 41.6269C19.3167 41.6269 21.35 40.8926 22.1972 39.537V36.5435C21.5759 35.6398 20.4463 35.1315 19.2037 34.7361C18.4217 34.5981 17.19 34.3102 15.4477 33.903C15.0508 33.8102 14.6275 33.7113 14.1769 33.6065C7.39907 32.138 4.01019 30.5 2.54167 27.6194V19.0343C4.40556 15.0806 9.09352 12.313 15.8713 12.313C21.7454 12.313 25.812 13.725 30.5565 17.6787L25.8685 23.3269C21.8583 20.1639 19.3167 19.3167 15.6454 19.3167C12.9907 19.3167 11.0704 20.1074 10.2796 21.35V23.9481C10.7315 24.5694 11.6352 25.0213 12.8213 25.3602C13.0915 25.4238 13.4199 25.5053 13.8052 25.6008ZM129.569 23.2704C132.054 16.4926 138.21 12.2565 146.061 12.2565C153.856 12.2565 160.012 16.4926 162.497 23.2139V37.6731C160.012 44.3944 153.856 48.6306 146.061 48.6306C138.267 48.6306 132.054 44.3944 129.569 37.6167V23.2704ZM146.061 41.2315C149.902 41.2315 152.782 39.0852 154.138 35.4704L154.081 25.4167C152.726 21.8019 149.958 19.5991 146.061 19.5991C142.164 19.5991 139.283 21.8019 137.928 25.4167V35.4704C139.34 39.0852 142.22 41.2315 146.061 41.2315ZM199.831 23.2704C202.373 16.4926 208.53 12.2565 216.381 12.2565C224.175 12.2565 230.275 16.4926 232.817 23.2139V37.6731C230.331 44.3944 224.231 48.6306 216.381 48.6306C208.53 48.6306 202.373 44.3944 199.831 37.6167V23.2704ZM216.381 41.2315C220.165 41.2315 223.045 39.0852 224.401 35.4704V25.4167C223.045 21.8019 220.278 19.5991 216.381 19.5991C212.483 19.5991 209.603 21.8019 208.247 25.4167V35.4704C209.603 39.0852 212.596 41.2315 216.381 41.2315ZM263.091 17.2269V13.4426H271.055V45.9194C271.055 55.5213 263.994 60.6611 254.393 60.6611C248.631 60.6046 242.983 58.8537 238.182 55.6343L242.419 49.3648C247.389 52.3019 250.495 53.4315 254.28 53.4315C259.363 53.4315 262.639 50.7769 262.639 45.1287V42.4176C260.323 45.2981 257.047 46.7667 252.698 46.7667C246.203 46.7667 241.006 42.8694 238.804 36.6V22.5361C241.063 16.2667 246.259 12.313 252.698 12.313C257.443 12.313 260.888 13.9509 263.091 17.2269ZM254.619 39.4241C258.007 39.4241 260.719 37.3907 262.018 34.1713V24.8519C260.719 21.6324 258.064 19.6556 254.619 19.6556C251.173 19.6556 248.519 21.6324 247.219 24.8519V34.1713C248.519 37.4472 251.23 39.4241 254.619 39.4241ZM372.942 17.3698V0.516456H381.636V48H373.543V43.5192C371.27 46.9299 367.725 49.0032 362.642 49.0032C353.948 49.0032 347.528 41.981 347.528 30.9461C347.528 19.8443 354.015 12.8889 362.709 12.8889C367.324 12.8889 370.668 14.494 372.942 17.3698ZM356.356 30.9461C356.356 37.3664 359.499 41.5128 364.649 41.5128C369.664 41.5128 373.276 37.5001 373.276 30.9461C373.276 24.2582 369.531 20.4462 364.716 20.4462C359.767 20.4462 356.356 24.4589 356.356 30.9461ZM387.496 30.8792C387.496 20.0449 394.853 12.6883 405.286 12.6883C415.652 12.6883 423.009 20.0449 423.009 30.8792C423.009 41.7134 415.652 49.0701 405.286 49.0701C394.853 49.0701 387.496 41.7134 387.496 30.8792ZM414.181 30.8792C414.181 24.3251 410.636 20.0449 405.286 20.0449C399.869 20.0449 396.324 24.3251 396.324 30.8792C396.324 37.5001 399.869 41.7134 405.286 41.7134C410.636 41.7134 414.181 37.5001 414.181 30.8792ZM459.5 19.1755L454.083 24.5257C450.204 20.8474 447.863 20.0449 445.188 20.0449C439.436 20.0449 436.36 24.927 436.36 30.8792C436.36 36.8313 439.436 41.6466 445.121 41.6466C448.465 41.6466 450.872 40.1752 454.417 36.3632L460.168 41.1784C455.286 47.2643 450.939 49.0701 444.987 49.0701C434.688 49.0701 427.532 42.1816 427.532 30.8792C427.532 19.5768 434.889 12.6883 445.188 12.6883C450.605 12.6883 454.952 14.2265 459.5 19.1755ZM463.532 23.3888C463.532 17.5704 468.615 12.6883 477.777 12.6883C483.529 12.6883 487.675 14.0259 492.491 18.0386L487.809 23.7232C483.663 20.513 481.054 19.7105 477.577 19.7105C474.099 19.7105 471.825 21.115 471.825 23.1213C471.825 25.2464 473.871 25.6973 479.158 26.8622C479.362 26.9071 479.57 26.9531 479.784 27.0002C489.147 29.0735 493.026 31.548 493.026 37.9014C493.026 44.4555 487.675 49.0701 478.379 49.0701C472.093 49.0701 467.411 47.5319 461.86 42.5829L466.876 36.9651C471.892 41.0447 474.567 42.0478 478.58 42.0478C481.991 42.0478 484.532 40.7772 484.532 38.4364C484.532 35.8387 481.5 35.1858 477.183 34.2559C476.832 34.1803 476.472 34.1029 476.105 34.0224C466.475 31.8823 463.532 29.4747 463.532 23.3888Z" fill="#000099"/>
</svg>
