<?xml version="1.0" encoding="utf-8"?>
<!-- Generator: Adobe Illustrator 23.0.2, SVG Export Plug-In . SVG Version: 6.00 Build 0)  -->
<svg version="1.1" id="Layer_1" xmlns="http://www.w3.org/2000/svg" xmlns:xlink="http://www.w3.org/1999/xlink" x="0px" y="0px"
	 viewBox="0 0 296.59 294.94" style="enable-background:new 0 0 296.59 294.94;" xml:space="preserve">
<style type="text/css">
	.st0{fill:#FFFFFF;}
	.st1{fill:#000099;}
</style>
<g>
	<rect x="5.75" y="3.94" class="st0" width="287.21" height="287.21"/>
	<path class="st1" d="M95.15,72.69c-12.59,0-21.04,5.43-23.88,12.9c0,2.22,0,10.37,0,12.77c2.2,5.81,8.18,8.87,20.95,11.67
		c4.22,0.94,7.14,1.64,8.78,1.99c2.5,0.71,4.66,1.84,5.55,3.73c0,0.64,0,3.41,0,4.08c-1.23,2.77-5.03,4.25-9.99,4.25
		c-3.63,0-6.79-0.59-9.72-1.87c-2.93-1.17-6.44-3.51-10.77-7.03l-8.78,9.84c9.48,8.43,17.56,11.36,28.92,11.36
		c12.94,0,21.78-5.18,24.64-13.4c0-2-0.01-10.53-0.01-12.7c-2.37-6.46-9.11-9.64-22.17-12.54c-4.21-0.94-7.14-1.64-8.78-2.11
		c-2.46-0.7-4.13-1.6-4.81-3.05c0-0.5,0-2.82,0-3.39c1.09-2.61,4.68-4.22,9.72-4.22c6.44,0,10.89,1.52,17.91,7.03l8.2-9.95
		C112.6,75.15,105.46,72.69,95.15,72.69z M215.79,74.68v36.06c0,8.08-4.68,12.41-12.29,12.41c-6.56,0-9.95-3.75-9.95-9.95V74.68
		h-15.22v42.74c0,11.59,7.02,18.97,21.19,18.97c8.55,0,14.4-3.04,17.56-8.2v6.32h13.93V74.68H215.79z M137.08,158.56
		c-7.84,0-13.82,2.93-17.91,8.78c-3.28-5.62-9.02-8.78-16.63-8.78c-7.84,0-13.58,2.93-17.09,8.66v-6.67H71.27v59.83h15.22v-36.77
		c0-7.03,3.86-11.94,10.54-11.94c6.32,0,9.48,3.86,9.48,11.47v37.23h15.22v-36.77c0-7.03,3.86-11.94,10.54-11.94
		c6.56,0,9.48,4.33,9.48,11.47v37.23h15.22v-41.8C156.98,166.29,149.72,158.56,137.08,158.56z M233.22,177.8
		c-4.41-11.84-15.19-19.24-28.86-19.24c-13.76,0-24.55,7.4-28.97,19.24c0,3.79,0,21.39,0,25.21c4.42,11.84,15.22,19.24,28.97,19.24
		c13.67,0,24.44-7.4,28.86-19.24C233.22,199.33,233.22,181.78,233.22,177.8z M190.16,181.59c2.38-6.31,7.46-10.15,14.21-10.15
		c6.66,0,11.72,3.85,14.09,10.15c0,3.19,0,14.73,0,17.74c-2.37,6.32-7.43,10.04-14.09,10.04c-6.74,0-11.82-3.73-14.2-10.04
		C190.16,196.61,190.16,184.58,190.16,181.59z"/>
</g>
</svg>
