<svg width="19" height="27" xmlns="http://www.w3.org/2000/svg" xmlns:xlink="http://www.w3.org/1999/xlink"><defs><path id="a" d="M0 0h12v12H0z"/></defs><g fill="none" fill-rule="evenodd"><path fill="#940760" d="M0 19v7l9.5-7 9.5 7.5V0H0z"/><g transform="translate(3.5 3.5)"><mask id="b" fill="#fff"><use xlink:href="#a"/></mask><path d="M6 .625c.59 0 1.157.097 1.688.273a2.11 2.11 0 01-.3.014s-.694.18-.763.334c-.07.152-.347.11-.653.388-.041.181-.514.612-.541.653-.098.167.027.445-.056.542-.097.125-.333-.528-.43-.542-.459-.083-.612.264-.709.486-.042.111.486.611.736.903.084.097.028.25.028.361 0 .097.153.292.167.39.014.319.583-.112.652.11.028.097.348-.139.487-.166.152-.028 1.138.166 1.194.166.347.028.514.292.597.43.056.098.653.126.709.223.166.25.25.32.388.486.167.222.723.375.764.39.292.055.39.263.486.485.084.195-.5.542-.43.708.07.195-.653.875-.625 1.014.055.223-.542.445-.583.459-.264.152-1.042.958-1.098 1.041-.402.625-1.083.861-1.152.93-.459.515-.459.334-.487.334-.208-.097.153-1.416.223-1.583.166-.403.264-1.139.277-1.195.028-.25-.097-.416-.43-.541-.333-.14-.611-1-.82-1.042-.208-.028-.25-.625-.277-.653-.098-.139.764-.93.764-.986 0-.208-.445-.291-.487-.11-.041.152-.5-.376-.541-.279-.042.098-.292-.402-.39-.486-.096-.097-.29-.028-.332-.055-.209-.153-.278-.223-.334-.223-.347.042-.514-.041-.764-.222-.25-.166-.166-.805-.333-.653-.125.112-.389-.375-.486-.277-.057.057-.067-.167-.077-.385A5.36 5.36 0 016 .625M6 0C2.692 0 0 2.692 0 6c0 3.309 2.692 6 6 6s6-2.691 6-6c0-3.308-2.692-6-6-6" fill="#FFF" mask="url(#b)"/></g></g></svg>