<svg width="235" height="84" viewBox="0 0 235 84" fill="none" xmlns="http://www.w3.org/2000/svg">
<path d="M126.8 20.3999V35.5199C124.76 32.9399 121.76 31.4999 117.62 31.4999C109.82 31.4999 104 37.7399 104 47.6999C104 57.5999 109.76 63.8999 117.56 63.8999C122.12 63.8999 125.3 62.0399 127.34 58.9799V62.9999H134.6V20.3999H126.8ZM119.36 57.1799C114.74 57.1799 111.92 53.4599 111.92 47.6999C111.92 41.8799 114.98 38.2799 119.42 38.2799C123.74 38.2799 127.1 41.6999 127.1 47.6999C127.1 53.5799 123.86 57.1799 119.36 57.1799ZM155.818 31.3199C146.458 31.3199 139.858 37.9199 139.858 47.6399C139.858 57.3599 146.458 63.9599 155.818 63.9599C165.118 63.9599 171.718 57.3599 171.718 47.6399C171.718 37.9199 165.118 31.3199 155.818 31.3199ZM155.818 37.9199C160.618 37.9199 163.798 41.7599 163.798 47.6399C163.798 53.5799 160.618 57.3599 155.818 57.3599C150.958 57.3599 147.778 53.5799 147.778 47.6399C147.778 41.7599 150.958 37.9199 155.818 37.9199ZM199.596 41.9399L204.456 37.1399C200.376 32.6999 196.476 31.3199 191.616 31.3199C182.376 31.3199 175.776 37.4999 175.776 47.6399C175.776 57.7799 182.196 63.9599 191.436 63.9599C196.776 63.9599 200.676 62.3399 205.056 56.8799L199.896 52.5599C196.716 55.9799 194.556 57.2999 191.556 57.2999C186.456 57.2999 183.696 52.9799 183.696 47.6399C183.696 42.2999 186.456 37.9199 191.616 37.9199C194.016 37.9199 196.116 38.6399 199.596 41.9399ZM220.854 31.3199C212.634 31.3199 208.074 35.6999 208.074 40.9199C208.074 46.3799 210.714 48.5399 219.354 50.4599C223.734 51.4199 226.914 51.8999 226.914 54.4199C226.914 56.5199 224.634 57.6599 221.574 57.6599C217.974 57.6599 215.574 56.7599 211.074 53.0999L206.574 58.1399C211.554 62.5799 215.754 63.9599 221.394 63.9599C229.734 63.9599 234.534 59.8199 234.534 53.9399C234.534 48.2399 231.054 46.0199 222.654 44.1599C217.494 43.0199 215.514 42.6599 215.514 40.6799C215.514 38.8799 217.554 37.6199 220.674 37.6199C223.794 37.6199 226.134 38.3399 229.854 41.2199L234.054 36.1199C229.734 32.5199 226.014 31.3199 220.854 31.3199Z" fill="white"/>
<g clip-path="url(#clip0_639_7913)">
<path d="M84 0H0V84H84V0Z" fill="white"/>
<path d="M25.8836 20.1279C22.2014 20.1279 19.7417 21.716 18.9023 23.9037V27.6385C19.5458 29.3378 21.2918 30.2327 25.0442 31.0516C26.2755 31.3266 27.1324 31.5313 27.612 31.6366C28.3432 31.8472 28.975 32.1747 29.2323 32.7304V33.9266C28.8726 34.7368 27.77 35.1667 26.3076 35.1667C25.332 35.1876 24.3631 35.0011 23.4648 34.6198C22.6079 34.2776 21.5813 33.5932 20.3149 32.5725L17.7471 35.4475C20.5197 37.913 22.8828 38.7699 26.2053 38.7699C29.9898 38.7699 32.5752 37.2549 33.4117 34.8508C33.4117 34.2659 33.4117 31.7711 33.4117 31.1365C32.701 29.2471 30.7327 28.3054 26.9072 27.4572C25.673 27.1823 24.819 26.9776 24.3393 26.8401C23.6198 26.6354 23.1314 26.3721 22.9325 25.9627V24.9595C23.2513 24.1932 24.3013 23.7253 25.7753 23.7253C27.6588 23.7253 28.9603 24.1699 31.0164 25.7726L33.4117 22.8479C31.0018 20.8474 28.8989 20.1279 25.8836 20.1279ZM61.167 20.7129V31.2622C61.167 33.6254 59.7983 34.8918 57.5726 34.8918C55.654 34.8918 54.6479 33.795 54.6479 31.9671V20.7099H50.2082V33.2101C50.2082 36.5998 52.2555 38.767 56.4085 38.767C58.9062 38.767 60.6201 37.8749 61.5443 36.3687V38.2201H65.6184V20.7099L61.167 20.7129ZM38.1468 45.2452C35.8499 45.2452 34.1029 46.1011 32.9057 47.813C31.9494 46.1694 30.2735 45.2452 28.0449 45.2452C25.749 45.2452 24.0732 46.1021 23.0437 47.7809V45.8272H18.9023V63.3256H23.3537V52.5715C23.3537 50.5242 24.4826 49.0765 26.4363 49.0765C28.2847 49.0765 29.2089 50.2084 29.2089 52.434V63.3227H33.6603V52.5715C33.6603 50.5242 34.7892 49.0765 36.7429 49.0765C38.6966 49.0765 39.5155 50.3458 39.5155 52.434V63.3227H43.9669V51.0975C43.9669 47.503 41.8436 45.2422 38.1468 45.2422V45.2452ZM66.2647 50.8723C64.975 47.4094 61.8221 45.2452 57.827 45.2452C53.8319 45.2452 50.644 47.4094 49.3454 50.8723V58.2454C50.6381 61.7112 53.7968 63.8754 57.827 63.8754C61.8572 63.8754 64.975 61.7112 66.2647 58.2454V50.8723ZM53.671 51.9836C54.3642 50.1382 55.8529 49.0122 57.827 49.0122C59.8012 49.0122 61.2548 50.1382 61.9479 51.9836C61.9479 52.9137 61.9479 56.2888 61.9479 57.172C61.2548 59.0175 59.7749 60.0967 57.8299 60.0967C55.885 60.0967 54.37 59.0058 53.674 57.172L53.671 51.9836Z" fill="#000099"/>
</g>
<defs>
<clipPath id="clip0_639_7913">
<rect width="84" height="84" fill="white"/>
</clipPath>
</defs>
</svg>
