<svg xmlns="http://www.w3.org/2000/svg" width="669.844" height="178.844" viewBox="0 0 669.844 178.844">
  <defs>
    <style>
      .cls-1 {
        fill-rule: evenodd;
      }
    </style>
  </defs>
  <path id="Shape_2_copy_2" data-name="Shape 2 copy 2" class="cls-1" d="M64.5,19.16A32.243,32.243,0,0,0,43.12,11C24.967,11,11.1,26.556,11.1,44.985c0,18.2,13.754,33.768,31.8,33.768a31.966,31.966,0,0,0,21.6-8.605l5.116,7.989C61.681,85.4,51.3,87.988,43.232,88.241,20.137,88.962,1,69.368,1,45.315,1,20.707,20.235,1.505,44.085,1.505c9.039,0,18.435,2.519,25.535,9.883Zm87.558,25.713c0,24.716-19.02,43.369-42.442,43.369S67.176,69.588,67.176,44.872c0-23.832,19.232-43.367,42.445-43.367S152.063,21.04,152.063,44.872Zm-10.108,0c0-18.316-13.321-33.657-32.334-33.657S77.275,26.556,77.275,44.872c0,18.984,14.832,33.659,32.346,33.659S141.955,63.856,141.955,44.872ZM375.79,21.558c-0.331-5.44-4.682-10.343-11.787-10.343-6.444,0-13.538,4.526-13.538,11.812,0,6.506,6.231,9.931,11.282,11.915l5.8,2.317c11.5,4.633,20.1,11.143,20.1,25.05,0,15.116-11.393,25.932-25.9,25.932-13.111,0-23.8-9.431-25.034-25.288l10.211-.2a15.371,15.371,0,0,0,15.682,15.78c8.7,0,14.941-7.5,14.941-16.222,0-8.937-6.983-12.8-13.97-15.78l-5.59-2.429c-9.239-4.085-17.624-9.488-17.624-21.072,0-13.468,11.607-21.522,23.854-21.522,9.031,0,19.369,5.524,20.845,20.091ZM559.153,86.474H549.064V3.271h11.592c24.933,0,32.668,8.83,32.668,24.056,0,17.545-12.993,24.281-28.367,24.281h-5.8V86.474Zm0-44.14h3.234c10.308,0,21.484-1.989,21.484-15.227,0-13.017-12.033-14.568-22.023-14.568h-2.695V42.334ZM600.528,3.271h43.516v9.489H610.628V36.044h32.449v9.489H610.628v31.45h33.416v9.492H600.528V3.271ZM455.18,19.16A32.212,32.212,0,0,0,433.8,11c-18.162,0-32.025,15.559-32.025,33.988,0,18.2,13.756,33.768,31.806,33.768a31.943,31.943,0,0,0,21.6-8.605l5.126,7.989c-7.938,7.263-18.333,9.851-26.4,10.1-23.084.721-42.229-18.873-42.229-42.926,0-24.608,19.24-43.809,43.088-43.809,9.047,0,18.436,2.519,25.544,9.883Zm-225.4,67.3H239.97L234.939,3.5h-13.3L207.252,43.625c-3.595,10.465-6.468,19.575-8.508,27.94h-0.36c-2.031-8.618-4.791-17.722-8.149-27.94L176.453,3.5H163.146l-5.63,82.958h9.951l2.156-35.568c0.718-12.435,1.318-26.342,1.558-36.683h0.237c2.283,9.848,5.516,20.555,9.351,32.251l13.064,39.5h7.91L216,45.721c4.076-11.329,7.434-21.789,10.187-31.514h0.356c-0.115,10.34.6,24.247,1.205,35.817Zm91.164,0h10.19L326.1,3.5H312.8L298.418,43.625c-3.6,10.465-6.468,19.575-8.51,27.94H289.55c-2.035-8.618-4.794-17.722-8.149-27.94L267.616,3.5h-13.3l-5.629,82.958h9.945l2.162-35.568c0.718-12.435,1.315-26.342,1.556-36.683h0.239c2.276,9.848,5.514,20.555,9.351,32.251L285,85.958H292.9l14.262-40.238c4.075-11.329,7.428-21.789,10.184-31.514h0.364c-0.123,10.34.6,24.247,1.2,35.817Zm338.292-73.3h1.072a1.744,1.744,0,0,1,2.037,1.6,8.22,8.22,0,0,0,.774,2.4h2.457a6.652,6.652,0,0,1-.717-2.463c-0.3-1.347-.841-2.148-1.795-2.456v-0.12a2.583,2.583,0,0,0,2.03-2.4,2.783,2.783,0,0,0-.954-2.149,5.465,5.465,0,0,0-3.411-.8,18.188,18.188,0,0,0-3.771.369V17.157h2.278v-4Zm0.054-4.546a5.434,5.434,0,0,1,1.259-.123c1.436,0,2.088.617,2.088,1.536,0,1.05-1.012,1.476-2.268,1.476h-1.079V8.614Zm1.494-6.76a10.053,10.053,0,0,0-10.112,10.077,10.085,10.085,0,1,0,20.169,0,9.954,9.954,0,0,0-9.99-10.077h-0.067Zm0,2.025c4.371,0,7.545,3.627,7.545,8.052,0,4.486-3.174,8.108-7.478,8.048a7.715,7.715,0,0,1-7.667-8.048c0-4.425,3.234-8.052,7.545-8.052h0.055Zm-143.137,1C504.363,0,486.767,6.562,484.943,19.867c-1.735,12.724,5.932,19.907,22.092,23.1,16.765,3.306,14.844,17.927,10.629,22.846-6.757,7.89-17.117,8.656-25.356,5.816-16.642-4.314-29.163-20.261-25.919-40.3C469.717,10.947,486.458.891,503.714,0.93a44.236,44.236,0,0,0-49.225,43.988A44.34,44.34,0,1,0,517.649,4.875Zm-479.086,150v23.713a0.51,0.51,0,0,1-.523.522H36.173a0.51,0.51,0,0,1-.523-0.522V154.806c0-11.633-3.733-13.2-11.649-13.2H10.933v36.986a0.51,0.51,0,0,1-.523.522H8.544a0.471,0.471,0,0,1-.523-0.522V140.116a0.626,0.626,0,0,1,.6-0.6A149.738,149.738,0,0,1,23.7,139C33.858,139,38.563,141.011,38.563,154.88ZM80.3,159.206c0,16.032-3.062,20.282-15.607,20.282-12.62,0-15.607-4.25-15.607-20.282S52.077,139,64.7,139C77.242,139,80.3,143.173,80.3,159.206Zm-28.376,0c0,14.018,2.39,17.672,12.769,17.672,10.305,0,12.695-3.654,12.695-17.672s-2.39-17.6-12.695-17.6C54.318,141.607,51.928,145.187,51.928,159.206Zm87.292-19.761a0.427,0.427,0,0,1,.448.6l-6.87,29.753c-2.091,8.948-2.688,9.694-6.421,9.694-3.958,0-4.407-.746-6.646-9.694l-6.124-24.682-6.049,24.682c-2.24,8.948-2.687,9.694-6.645,9.694-3.734,0-4.331-.746-6.422-9.694l-6.87-29.753a0.428,0.428,0,0,1,.448-0.6H90.01a0.546,0.546,0,0,1,.523.448l6.72,29.379c1.568,6.487,2.091,7.382,3.584,7.382,1.867,0,2.166-.447,3.958-7.382l6.571-26.621c0.224-.969.448-1.193,0.971-1.193h2.613c0.523,0,.747.224,0.971,1.193l6.571,26.621c1.792,6.935,2.091,7.382,3.958,7.382,1.493,0,2.016-.9,3.584-7.382l6.721-29.379a0.567,0.567,0,0,1,.6-0.448h1.867Zm80.049,15.435v23.713a0.51,0.51,0,0,1-.523.522H216.88a0.454,0.454,0,0,1-.449-0.522V154.806c0-11.633-3.808-13.2-11.723-13.2a56.384,56.384,0,0,0-12.172,1.194c1.493,2.236,2.24,5.592,2.24,10.961v24.831a0.422,0.422,0,0,1-.448.522h-1.941a0.454,0.454,0,0,1-.449-0.522V153.687c0-11.632-3.808-12.08-11.723-12.08h-10.9v36.986a0.51,0.51,0,0,1-.523.522h-1.867a0.471,0.471,0,0,1-.523-0.522V140.116a0.627,0.627,0,0,1,.6-0.6A125.987,125.987,0,0,1,179.991,139c4.406,0,8.064.373,10.529,1.865A53.143,53.143,0,0,1,204.484,139C214.564,139,219.269,141.011,219.269,154.88Zm40.621,2.536v2.237c0,0.671-.075.969-1.121,0.969H232.783c0.15,12.826,2.241,16.256,12.321,16.256h10.828a0.4,0.4,0,0,1,.448.448v1.342a0.363,0.363,0,0,1-.374.447c-2.837.373-8.886,0.373-10.9,0.373-12.769,0-15.233-4.176-15.233-20.357S232.335,139,245.1,139C256.9,139,259.74,142.651,259.89,157.416Zm-27.107.522h24.269c-0.149-13.572-2.389-16.331-11.948-16.331C234.949,141.607,232.858,144.889,232.783,157.938Zm65.713-.522v2.237c0,0.671-.075.969-1.121,0.969H271.389c0.149,12.826,2.24,16.256,12.321,16.256h10.828a0.4,0.4,0,0,1,.448.448v1.342a0.363,0.363,0,0,1-.374.447c-2.837.373-8.886,0.373-10.9,0.373-12.769,0-15.233-4.176-15.233-20.357S270.941,139,283.71,139C295.509,139,298.346,142.651,298.5,157.416Zm-27.107.522h24.269c-0.149-13.572-2.39-16.331-11.948-16.331C273.554,141.607,271.464,144.889,271.389,157.938Zm40.7-29.9c0.3-.074.523,0,0.523,0.447v10.962h8.886a0.51,0.51,0,0,1,.523.522v1.491a0.51,0.51,0,0,1-.523.522h-8.886v30.5c0,3.431,1.045,4.4,4.779,4.4h4.854a0.453,0.453,0,0,1,.522.448v1.342a0.447,0.447,0,0,1-.448.522,43.844,43.844,0,0,1-4.779.3c-5.451,0-7.841-1.268-7.841-6.711v-30.8h-4.4a0.454,0.454,0,0,1-.449-0.522v-1.491a0.454,0.454,0,0,1,.449-0.522h4.4v-10.44a0.494,0.494,0,0,1,.449-0.522Zm40.546,11.26c0.374,0.074.374,0.224,0.374,0.522v1.268a0.422,0.422,0,0,1-.448.521H339.639c-2.913,0-8.439.448-8.439,5.518v1.641c0,3.281.747,5.145,5.153,7.009l12.022,5.071c5.153,2.237,6.273,5.07,6.273,8.948v1.193c0,6.637-3.435,8.5-13.964,8.5-2.39,0-9.857-.075-12.172-0.373a0.422,0.422,0,0,1-.448-0.447v-1.342a0.454,0.454,0,0,1,.523-0.448h12.172c8.288,0,11.051-1.417,11.051-5.891V169.72c0-2.834-.971-4.922-4.7-6.488l-12.1-5.071c-5.6-2.386-6.646-5.219-6.646-9.47v-1.64c0-7.606,7.691-8.054,11.8-8.054C341.953,139,349.719,139,352.631,139.3Zm60.933,15.584v23.713a0.51,0.51,0,0,1-.523.522h-1.867a0.509,0.509,0,0,1-.522-0.522V154.806c0-11.633-3.734-13.2-11.649-13.2H385.935v36.986a0.51,0.51,0,0,1-.523.522h-1.867a0.471,0.471,0,0,1-.522-0.522V140.116a0.626,0.626,0,0,1,.6-0.6A149.737,149.737,0,0,1,398.7,139C408.859,139,413.564,141.011,413.564,154.88Zm40.621,2.536v2.237c0,0.671-.075.969-1.12,0.969H427.079c0.149,12.826,2.24,16.256,12.321,16.256h10.828a0.4,0.4,0,0,1,.448.448v1.342a0.363,0.363,0,0,1-.373.447c-2.838.373-8.886,0.373-10.9,0.373-12.77,0-15.234-4.176-15.234-20.357S426.63,139,439.4,139C451.2,139,454.036,142.651,454.185,157.416Zm-27.106.522h24.269c-0.15-13.572-2.39-16.331-11.948-16.331C429.244,141.607,427.154,144.889,427.079,157.938Zm62.351-18.493a0.347,0.347,0,0,1,.3.6l-12.918,17.971L491.6,178.519c0.15,0.3.075,0.6-.3,0.6h-2.538a0.5,0.5,0,0,1-.524-0.3L475.093,160.4,461.95,178.817a0.605,0.605,0,0,1-.6.3h-2.465a0.347,0.347,0,0,1-.3-0.6l14.785-20.507-12.918-17.971c-0.224-.3-0.149-0.6.225-0.6h2.538a0.775,0.775,0,0,1,.6.3l11.276,15.809,11.276-15.809a0.775,0.775,0,0,1,.6-0.3h2.463Zm13.591-11.409c0.3-.074.523,0,0.523,0.447v10.962h8.886a0.509,0.509,0,0,1,.522.522v1.491a0.51,0.51,0,0,1-.522.522h-8.886v30.5c0,3.431,1.045,4.4,4.779,4.4h4.854a0.453,0.453,0,0,1,.522.448v1.342a0.446,0.446,0,0,1-.447.522,43.874,43.874,0,0,1-4.78.3c-5.451,0-7.84-1.268-7.84-6.711v-30.8h-4.407a0.453,0.453,0,0,1-.447-0.522v-1.491a0.452,0.452,0,0,1,.447-0.522h4.407v-10.44a0.493,0.493,0,0,1,.447-0.522Z" transform="translate(-1 -0.656)"/>
</svg>
