<?xml version="1.0" encoding="UTF-8"?>
<svg width="202px" height="30px" viewBox="0 0 202 30" version="1.1" xmlns="http://www.w3.org/2000/svg" xmlns:xlink="http://www.w3.org/1999/xlink">
    <!-- Generator: Sketch 63.1 (92452) - https://sketch.com -->
    <title>DTMRMrk_RGB_Navy-B</title>
    <desc>Created with Sketch.</desc>
    <g id="Page-1" stroke="none" stroke-width="1" fill="none" fill-rule="evenodd">
        <g id="Homepage-Comp-V4.1" transform="translate(-124.000000, -29.000000)" fill="#002F6C" fill-rule="nonzero">
            <g id="Hero/Nav">
                <g id="Header-+-Nav">
                    <g id="Dataminr-Loog-All-" transform="translate(124.000000, 28.314607)">
                        <g id="DTMRMrk_RGB_Navy-B">
                            <path d="M122.946458,8.91063496 L122.946458,11.0271753 C124.419375,9.15756467 126.888264,8.5719885 129.132708,8.61431931 C131.150756,8.61360498 133.018495,9.68716045 134.042431,11.4363731 C135.445208,9.45388032 138.524306,8.55787823 140.958125,8.67076039 C144.906944,8.82597335 148.070208,11.4928142 147.972014,18.1246407 L147.972014,29.9490463 L141.827847,29.9490463 L141.827847,18.1246407 C141.827847,15.5989025 140.628472,14.6676248 139.239722,14.5970734 C137.731736,14.5617978 135.487292,15.6059577 135.452222,17.9412072 L135.452222,29.934936 L129.308056,29.934936 L129.308056,18.1246407 C129.308056,15.5989025 128.108681,14.6676248 126.712917,14.5970734 C125.789291,14.5562183 124.889746,14.9000194 124.226134,15.5475081 C123.562523,16.1949968 123.193499,17.0889432 123.205972,18.0188137 L123.205972,29.9490463 L116.753194,29.9490463 L116.753194,8.91063496 L122.946458,8.91063496 Z" id="Path"></path>
                            <path d="M44.31375,2.73033708 C53.2424306,2.73033708 57.7313194,9.57381761 57.7313194,16.3749673 C57.7313194,23.1761171 53.2424306,29.9490463 44.31375,29.9490463 L33.5684722,29.9490463 L33.5684722,2.73033708 L44.31375,2.73033708 Z M44.31375,23.6064803 C48.8797917,23.6064803 51.194375,19.9519206 51.194375,16.3749673 C51.194375,12.7980141 48.8797917,9.02351712 44.31375,9.02351712 L40.1054167,9.02351712 L40.1054167,23.6064803 L44.31375,23.6064803 Z" id="Shape"></path>
                            <path d="M74.3472222,11.0906715 L74.3472222,8.91063496 L80.4142361,8.91063496 L80.4142361,29.9490463 L74.3472222,29.9490463 L74.3472222,27.8325059 C72.983258,29.4395233 70.9530159,30.3158616 68.8553472,30.2030311 C62.2131944,30.2171414 58.7763889,24.848184 58.8114583,19.0488633 C58.8465278,13.2495427 62.178125,8.5508231 68.9395139,8.5508231 C71.0379383,8.49936799 73.0392342,9.43932036 74.3472222,11.0906715 Z M74.3472222,19.2887379 C74.388796,17.9787634 73.9109897,16.7058905 73.019041,15.7504716 C72.1270923,14.7950528 70.8941621,14.235455 69.5918056,14.1949308 C66.4986806,14.1949308 64.9486111,16.6501176 64.9135417,19.2111314 C64.8784722,21.7721453 66.4565972,24.3472694 69.5918056,24.3472694 C72.2898875,24.2627657 74.4140864,22.0031683 74.3472222,19.2887379 L74.3472222,19.2887379 Z" id="Shape"></path>
                            <path d="M82.3640972,4.59289261 L88.4311111,4.59289261 L88.4311111,9.17167494 L92.8007639,9.17167494 L92.8007639,14.3924745 L88.4311111,14.3924745 L88.4311111,22.6752025 C88.4311111,24.537758 89.7847917,25.1233342 91.2366667,25.1233342 C91.821753,25.1188405 92.4047573,25.0526303 92.9761111,24.9257904 L92.9761111,29.9843219 C91.941588,30.1763568 90.8927946,30.2802009 89.8409028,30.2947478 C85.1626389,30.3370787 82.3430556,28.1782075 82.3430556,22.6752025 L82.3640972,4.59289261 Z" id="Path"></path>
                            <path d="M108.659167,11.0906715 L108.659167,8.91063496 L114.726181,8.91063496 L114.726181,29.9490463 L108.659167,29.9490463 L108.659167,27.8325059 C107.295202,29.4395233 105.26496,30.3158616 103.167292,30.2030311 C96.518125,30.2030311 93.0813194,24.8340737 93.1163889,19.0418082 C93.1514583,13.2495427 96.4830556,8.54376796 103.244444,8.54376796 C105.34652,8.49177956 107.351107,9.43466984 108.659167,11.0906715 Z M108.659167,19.2887379 C108.70074,17.9787634 108.222934,16.7058905 107.330985,15.7504716 C106.439037,14.7950528 105.206107,14.235455 103.90375,14.1949308 C100.810625,14.1949308 99.2605556,16.6501176 99.2254861,19.2111314 C99.1904167,21.7721453 100.768542,24.3472694 103.90375,24.3472694 C106.601832,24.2627657 108.726031,22.0031683 108.659167,19.2887379 L108.659167,19.2887379 Z" id="Shape"></path>
                            <path d="M153.421806,0.705513457 C155.280486,0.705513457 157.209306,1.83433499 157.209306,4.28246668 C157.209306,6.54010975 155.476875,7.66893128 153.702361,7.70420695 C151.927847,7.73948262 149.914861,6.61771623 149.914861,4.28246668 C149.883925,3.33321481 150.241815,2.41282073 150.904815,1.73658565 C151.567815,1.06035057 152.477764,0.687594452 153.421806,0.705513457 L153.421806,0.705513457 Z M150.482986,8.91063496 L150.482986,29.9490463 L156.669236,29.9490463 L156.669236,8.91063496 L150.482986,8.91063496 Z" id="Shape"></path>
                            <path d="M165.240208,8.91063496 L165.240208,11.0271753 C166.713125,9.15756467 169.182014,8.61431931 171.426458,8.61431931 C177.38125,8.69192579 179.001458,13.1225503 178.966389,18.3715704 L178.966389,29.9490463 L172.780139,29.9490463 L172.780139,18.399791 C172.780139,15.5777371 171.195,14.2795924 169.532708,14.2795924 C167.276902,14.3563161 165.501467,16.2428044 165.548819,18.5126731 L165.548819,29.9490463 L159.096042,29.9490463 L159.096042,8.91063496 L165.240208,8.91063496 Z" id="Path"></path>
                            <path d="M187.516319,29.9490463 L181.449306,29.9490463 L181.449306,8.91063496 L186.934167,8.91063496 L187.165625,10.3216619 C188.378273,9.11164563 190.023728,8.44298251 191.731667,8.46616148 C192.50083,8.48129656 193.265704,8.58545769 194.011181,8.77658741 L194.011181,14.5335772 C193.34684,14.3317871 192.657082,14.2272397 191.963125,14.2231513 C189.75375,14.2654821 187.516319,15.4295793 187.516319,18.2657434 L187.516319,29.9490463 Z" id="Path"></path>
                            <path d="M22.4444444,2.73024773 C24.972405,2.71467775 27.0364385,4.75929618 27.0595833,7.30206428 L27.0595833,13.7998432 C26.0641387,12.7928458 24.7684328,12.1411831 23.3702778,11.9443428 L23.3702778,7.30206428 C23.3655519,5.57482133 22.6614917,3.92405185 21.4204167,2.73024773 L22.4444444,2.73024773 Z" id="Path"></path>
                            <path d="M16.9104861,26.2874314 C20.4483406,26.3148221 23.3394158,23.4541086 23.3702778,19.8954795 L23.3702778,13.7927881 C25.5007782,14.2120139 27.0432763,16.0821559 27.0595833,18.2657434 L27.0595833,25.3984845 C27.0249545,27.9329577 24.96429,29.9647884 22.4444444,29.9491371 L15.6830556,29.9491371 C13.5040801,29.9579052 11.6167675,28.4303465 11.1590972,26.2874314 L16.9104861,26.2874314 Z" id="Path"></path>
                            <path d="M11.0679167,24.4601516 L11.0679167,18.2657434 C11.0910615,15.7229753 13.155095,13.6783569 15.6830556,13.6939268 L21.525625,13.6939268 L21.525625,19.8954795 C21.5024819,22.4371242 19.437303,24.4797203 16.9104861,24.4601516 L11.0679167,24.4601516 Z" id="Path"></path>
                            <path d="M0,7.30206428 C0.0231448043,4.75929618 2.08717829,2.71467775 4.61513889,2.73024773 L16.9104861,2.73024773 C19.4384467,2.71467775 21.5024802,4.75929618 21.525625,7.30206428 L21.525625,11.8667363 L15.6830556,11.8667363 C12.1440574,11.8432574 9.25412965,14.7059919 9.22326389,18.2657434 L9.22326389,24.460291 L4.61513889,24.460291 C2.08832204,24.4797203 0.023143105,22.4371242 0,19.8954795 L0,7.30206428 Z" id="Path"></path>
                            <path d="M-6.22958475e-16,25.3984845 L-6.22958475e-16,24.3613797 C1.22105079,25.5974187 2.88281844,26.2909299 4.61513889,26.2874314 L9.30041667,26.2874314 C9.49930812,27.6845053 10.1587848,28.9739476 11.173125,29.9490463 L4.61513889,29.9490463 C2.09529329,29.9647884 0.034628844,27.9329577 -6.22958475e-16,25.3984845 Z" id="Path"></path>
                            <path d="M199.09625,5.64410766 C200.632853,5.69436768 201.84302,6.97922618 201.809977,8.52532461 C201.776933,10.071423 200.512989,11.3027808 198.975659,11.2865694 C197.438328,11.2703581 196.200326,10.0126169 196.199513,8.46616148 C196.199112,7.70154091 196.50718,6.96948325 197.053213,6.43752816 C197.599246,5.90557307 198.336501,5.61925738 199.09625,5.64410766 L199.09625,5.64410766 Z M199.09625,10.7167494 C199.673022,10.705822 200.221138,10.4618048 200.617001,10.0397226 C201.012864,9.61764038 201.223141,9.05303275 201.200417,8.47321662 C201.200417,7.2906461 200.247358,6.33198328 199.071701,6.33198328 C197.896044,6.33198328 196.942986,7.2906461 196.942986,8.47321662 C196.907442,9.0649044 197.120197,9.64447004 197.529499,10.0709306 C197.938801,10.4973912 198.507135,10.7316599 199.09625,10.7167494 L199.09625,10.7167494 Z M197.974028,6.87875621 L199.194444,6.87875621 C199.987014,6.87875621 200.435903,7.13274105 200.435903,7.82414424 C200.452623,8.0521735 200.370326,8.27630848 200.210266,8.43866257 C200.050206,8.60101665 199.828078,8.68567033 199.60125,8.67076039 L200.449931,10.0817873 L199.790625,10.0817873 L199.019097,8.72720146 L198.626319,8.72720146 L198.626319,10.0817873 L198.002083,10.0817873 L197.974028,6.87875621 Z M198.598264,8.21217664 L199.159375,8.21217664 C199.517083,8.21217664 199.776597,8.15573556 199.776597,7.76770316 C199.776597,7.37967076 199.418889,7.37261563 199.131319,7.37261563 L198.598264,7.37261563 L198.598264,8.21217664 Z" id="Shape"></path>
                        </g>
                    </g>
                </g>
            </g>
        </g>
    </g>
</svg>