<?xml version="1.0" standalone="no"?>
<svg version="1.2" xmlns="http://www.w3.org/2000/svg" xmlns:xlink="http://www.w3.org/1999/xlink" overflow="visible" preserveAspectRatio="none" viewBox="0 0 737.7999877929688 133.60000610351562" xml:space="preserve" y="0px" x="0px" id="Logo_1586363002199" width="139" height="25"><g transform="translate(1, 1)"><style type="text/css">
	.st0_1586363002199{fill:#009CDE;}
	.st1_1586363002199{fill:#003865;}
</style><g>
	<polygon points="0,131.6 62.4,131.6 62.4,45.2 45.6,45.2 45.6,114.8 16.8,114.8 16.8,16.8 91.1,16.8 91.1,131.6    108,131.6 108,0 0,0" class="st0_1586363002199" vector-effect="non-scaling-stroke"/>
	<path d="M362.8,33.4c-10-11-22.8-16.6-37.9-16.6c-14.8,0-27.3,5.3-37.9,16.1c-10.3,10.3-15.6,22.8-15.6,37.6   c0,15.1,5.3,27.6,15.6,37.9c10.3,10.5,23.1,15.8,37.9,15.8c14.3,0,27.8-6.3,40.9-18.8l-10.5-11c-10,9.5-20.1,14.3-30.4,14.3   c-9.8,0-18.1-3.3-25.1-9.5c-7.3-6.5-11.5-14.3-12.5-23.6h90.8C378.1,58.5,373.1,44.7,362.8,33.4z M288.3,60   c4.5-16.6,19.1-27.6,36.6-27.6s32.1,11,36.6,27.6H288.3z" class="st1_1586363002199" vector-effect="non-scaling-stroke"/>
	<path d="M443.7,16.8c-14.8,0-27.3,5.3-37.9,16.1c-10.3,10.3-15.6,22.8-15.6,37.6v53.7h15.6V70.5   c0-10.3,3.5-19.3,10.8-26.8c7.5-7.5,16.6-11.3,27.1-11.3c10.3,0,19.3,3.8,26.6,11.3c7.5,7.5,11.3,16.6,11.3,26.8v53.7h15.3V70.5   c0-14.8-5.3-27.1-15.6-37.6C470.8,22.1,458.5,16.8,443.7,16.8z" class="st1_1586363002199" vector-effect="non-scaling-stroke"/>
	<path d="M601.4,33.4c-10-11-22.8-16.6-37.9-16.6c-14.8,0-27.3,5.3-37.9,16.1C515.3,43.2,510,55.7,510,70.5   c0,15.1,5.3,27.6,15.6,37.9c10.3,10.5,23.1,15.8,37.9,15.8c14.3,0,27.8-6.3,40.9-18.8l-10.5-11c-10,9.5-20.1,14.3-30.4,14.3   c-9.8,0-18.1-3.3-25.1-9.5c-7.3-6.5-11.5-14.3-12.5-23.6h90.8C616.7,58.5,611.7,44.7,601.4,33.4z M526.9,60   c4.5-16.6,19.1-27.6,36.6-27.6s32.1,11,36.6,27.6H526.9z" class="st1_1586363002199" vector-effect="non-scaling-stroke"/>
	<path d="M719.9,32.9c-10.5-10.8-22.8-16.1-37.6-16.1s-27.3,5.3-37.9,16.1c-10.3,10.3-15.6,22.8-15.6,37.6   c0,15.1,5.3,27.6,15.6,37.9c10.3,10.5,23.1,15.8,37.9,15.8c14.8,0,27.3-5.3,37.9-15.8v15.8h15.3V70.5   C735.5,55.7,730.2,43.4,719.9,32.9z M708.9,97.6c-7.3,7.5-16.3,11-26.6,11c-10.5,0-19.6-3.5-27.1-11c-7.3-7.5-10.8-16.6-10.8-27.1   c0-10.3,3.5-19.3,10.8-26.8c7.5-7.5,16.6-11.3,27.1-11.3c10.3,0,19.3,3.8,26.6,11.3c7.5,7.5,11.3,16.6,11.3,26.8   C720.2,81.1,716.4,89.8,708.9,97.6z" class="st1_1586363002199" vector-effect="non-scaling-stroke"/>
	<path d="M193.4,59.9v15.6h50.1c0,0.4-0.1,0.8-0.2,1.2c-1.3,8.4-5,15.4-11.4,21.4c-7.4,7-16.3,10.5-26.2,10.5   c-10.7,0-19.5-3.7-27-11.2s-11.2-16.4-11.2-27s3.7-19.5,11.2-27s16.4-11.2,27-11.2c10,0,19.2,4,28.1,12.3l2.9,2.6l10.5-11.5   l-2.8-2.6c-11.3-10.8-24.4-16.3-38.7-16.3c-14.7,0-27.5,5.3-38.1,15.8c-10.3,10.3-15.6,23-15.7,37.8c-0.2,13.9,5.6,27.7,15.9,38   c10.1,10.1,23.7,15.9,37.3,15.9c0.2,0,0.5,0,0.7,0c14.8-0.1,27.5-5.4,37.8-15.7C254,98,259.3,85.2,259.3,70.4v-0.1V69   c-0.1-4.3-0.9-8.5-1-9.1H193.4z" class="st1_1586363002199" vector-effect="non-scaling-stroke"/>
</g></g></svg>