<svg width="168" height="42" viewBox="0 0 168 42" fill="none" xmlns="http://www.w3.org/2000/svg">
<path d="M58.1636 11.7346H51.4688V6.58545H58.1636V11.7346ZM51.4688 14.3134H58.1636V34.6919H51.4688V14.3134Z" fill="#FA6624"/>
<path d="M61.2539 6.58545H67.9487V34.6918H61.2539V6.58545Z" fill="#FA6624"/>
<path d="M70.9303 6.58545H77.6167V34.6918H70.9219V6.58545H70.9303Z" fill="#FA6624"/>
<path d="M100.676 34.7928H94.1912V32.0124H94.0904C92.7548 34.0704 90.386 35.406 87.9164 35.406C82.0532 35.406 80.3984 32.0124 80.3984 26.6532V14.3052H87.0932V26.1408C87.0932 28.8204 88.2272 29.8452 90.386 29.8452C91.8308 29.8452 94.0904 28.9212 94.0904 25.3176V14.3052H100.785L100.676 34.7928Z" fill="#FA6624"/>
<path d="M103.145 14.305H109.629V17.0854H109.73C110.965 15.0274 113.233 13.6918 115.593 13.6918C118.164 13.6918 120.432 14.515 121.566 16.9846C123.011 14.8258 125.371 13.591 127.95 13.6918C134.435 13.6918 135.157 18.631 135.157 22.5454V34.7926H128.462V22.747C128.462 20.5882 127.437 19.2442 125.682 19.2442C122.801 19.2442 122.591 21.403 122.591 24.805V34.7926H115.896V23.1586C115.896 20.7898 115.173 19.2442 113.426 19.2442C111.057 19.2442 110.033 20.5798 110.033 24.805V34.7926H103.338L103.145 14.305Z" fill="#FA6624"/>
<path d="M144.632 11.7346H137.938V6.58545H144.632V11.7346ZM137.946 14.3134H144.641V34.6918H137.946V14.3134Z" fill="#FA6624"/>
<path d="M157.091 13.6919C163.063 13.6919 167.902 18.4295 168.003 24.3935C168.003 30.3659 163.265 35.2043 157.301 35.3051C151.328 35.3051 146.49 30.5675 146.389 24.6035V24.5027C146.188 18.7403 150.715 13.9019 156.478 13.6919C156.679 13.6919 156.889 13.6919 157.091 13.6919ZM157.091 30.1643C160.182 30.1643 161.207 27.0731 161.207 24.5027C161.207 21.9323 160.182 18.8411 157.091 18.8411C154 18.8411 153.076 21.9323 153.076 24.5027C153.076 27.0731 154 30.1643 157.091 30.1643Z" fill="#FA6624"/>
<path d="M15.6996 42H2.688C1.2096 42 0 40.7904 0 39.312V19.866H4.326V37.674H15.6996V42ZM4.326 4.326H10.8612V0H2.688C1.2096 0 0 1.2096 0 2.688V14.1036H4.326V4.326ZM37.674 37.674H31.8108V42H39.312C40.7904 42 42 40.7904 42 39.312V31.8108H37.674V37.674ZM39.312 0H16.6236V4.326H37.674V26.04H42V2.688C42 1.2096 40.7904 0 39.312 0Z" fill="#64686A"/>
<path d="M23.9322 18.3958L26.4522 15.8842H31.8366C32.3658 15.8842 32.7942 15.4558 32.7942 14.9266V9.3658C32.7942 8.8366 32.3658 8.4082 31.8366 8.4082H26.2758C25.7466 8.4082 25.3182 8.8366 25.3182 9.3658V14.7502L22.7982 17.2618H17.5902L13.9866 13.6582V10.6342C13.9866 10.2982 13.7094 10.021 13.3734 10.021H9.82863C9.49263 10.021 9.21543 10.2982 9.21543 10.6342V14.179C9.21543 14.515 9.49263 14.7922 9.82863 14.7922H12.8358L16.4478 18.4042V23.6038L12.819 27.2326H9.82023C9.48423 27.2326 9.20703 27.5098 9.20703 27.8458V31.3906C9.20703 31.7266 9.48423 32.0038 9.82023 32.0038H13.365C13.701 32.0038 13.9782 31.7266 13.9782 31.3906V28.3498L17.5818 24.7462H22.7814L25.3014 27.2662V32.6506C25.3014 33.1798 25.7298 33.6082 26.259 33.6082H31.8198C32.349 33.6082 32.7774 33.1798 32.7774 32.6506V27.0898C32.7774 26.5606 32.349 26.1322 31.8198 26.1322H26.4354L23.9322 23.6038V18.3958Z" fill="#FA6624"/>
</svg>
