<?xml version="1.0" encoding="UTF-8"?>
<svg xmlns="http://www.w3.org/2000/svg" width="137" height="30" viewBox="0 0 137 30" fill="none">
  <g clip-path="url(#clip0_15_25)">
    <path d="M8.97208 4.65211L5.46541 8.12151C5.25799 8.32673 4.92169 8.32673 4.71427 8.12151L1.20757 4.65211C1.00015 4.44689 1.00015 4.11417 1.20757 3.90895L4.71424 0.43956C4.92167 0.234339 5.25796 0.234339 5.46539 0.43956L8.97206 3.90895C9.17951 4.11417 9.17951 4.44689 8.97208 4.65211Z" fill="#00BD4D"></path>
    <path d="M125.752 19.0023L131.982 28.1494C132.206 28.4654 131.962 28.8859 131.554 28.8859H126.319C125.969 28.8859 125.642 28.7151 125.443 28.4293L121.842 22.9773L118.241 28.4293C118.043 28.7151 117.715 28.8859 117.365 28.8859H112.13C111.722 28.8859 111.478 28.4654 111.702 28.1494L117.913 19.0023L111.702 9.85511C111.478 9.5392 111.722 9.11865 112.13 9.11865H117.588C117.793 9.11865 117.983 9.21183 118.089 9.3644L121.842 15.0192L125.364 9.3666C125.469 9.2128 125.66 9.11868 125.866 9.11868H131.377C131.785 9.11868 132.029 9.53804 131.806 9.85405L125.752 19.0023Z" fill="#101820"></path>
    <path d="M40.7476 1.13306H36.406C35.9834 1.13306 35.5781 1.29914 35.2793 1.5948L31.2 5.63068C30.9012 5.92632 30.7333 6.32731 30.7333 6.74542V9.92179H28.2984C28.0101 9.92179 27.7764 10.153 27.7764 10.4382V14.0035C27.7764 14.2887 28.0101 14.5199 28.2984 14.5199H30.7333V28.3604C30.7333 28.6506 30.9712 28.8859 31.2645 28.8859H35.8456C36.1389 28.8859 36.3768 28.6507 36.3768 28.3604V14.5199H40.0151C40.3034 14.5199 40.5371 14.2887 40.5371 14.0035V10.4382C40.5371 10.153 40.3034 9.92181 40.0151 9.92181H36.3768V7.66896C36.3768 6.79828 37.0902 6.09247 37.9702 6.09247H40.7476C41.041 6.09247 41.2788 5.8572 41.2788 5.56696V1.65855C41.2788 1.36833 41.041 1.13306 40.7476 1.13306Z" fill="#101820"></path>
    <path d="M137 27.0149C137 28.2256 136.021 29.194 134.793 29.194C133.592 29.194 132.604 28.2168 132.604 27.0149C132.604 25.8087 133.583 24.8447 134.802 24.8447C136.021 24.8447 137 25.8088 137 27.0149ZM136.662 27.0238C136.662 25.9805 135.83 25.1527 134.802 25.1527C133.774 25.1527 132.942 25.9717 132.942 27.0195C132.942 28.0539 133.783 28.886 134.793 28.886C135.83 28.886 136.662 28.0627 136.662 27.0238ZM135.274 27.3671L135.825 28.2168H135.461L134.846 27.2528H134.766H134.286V28.2168H133.979V25.778H134.935C135.407 25.778 135.714 26.029 135.714 26.4956C135.714 26.8742 135.483 27.1075 135.153 27.1998C135.198 27.2483 135.242 27.3098 135.274 27.3671ZM134.833 26.9665C135.18 26.9665 135.394 26.8036 135.394 26.5175C135.394 26.2401 135.247 26.064 134.944 26.064H134.286V26.9665H134.833Z" fill="#101820"></path>
    <path d="M90.4563 28.8859H85.8751C85.5818 28.8859 85.344 28.6507 85.344 28.3604V1.65855C85.344 1.36833 85.5818 1.13306 85.8751 1.13306H90.4563C90.7496 1.13306 90.9874 1.36833 90.9874 1.65855V28.3604C90.9874 28.6507 90.7496 28.8859 90.4563 28.8859Z" fill="#101820"></path>
    <path d="M74.4266 8.7021C71.8213 8.7021 69.6564 9.81804 68.2938 11.6508V1.65855C68.2938 1.36833 68.056 1.13306 67.7626 1.13306H63.1815C62.8882 1.13306 62.6504 1.36833 62.6504 1.65855V28.3604C62.6504 28.6506 62.8881 28.8859 63.1815 28.8859H67.7626C68.056 28.8859 68.2938 28.6507 68.2938 28.3604V26.3927C69.6564 28.2255 71.8213 29.2856 74.4669 29.2856C80.0388 29.2856 83.8312 24.839 83.8312 19.0218C83.8312 13.2045 80.0389 8.7021 74.4266 8.7021ZM73.3043 24.0421C70.4183 24.0421 68.2938 21.731 68.2938 19.0217C68.2938 16.3125 70.4183 14.041 73.3043 14.041C76.1505 14.041 78.2348 16.3125 78.2348 19.0217C78.2348 21.731 76.1505 24.0421 73.3043 24.0421Z" fill="#101820"></path>
    <path d="M50.8516 8.70215C45.0371 8.70215 40.5369 13.1838 40.5369 18.9742C40.5369 24.7646 45.0371 29.2856 50.8516 29.2856C56.6661 29.2856 61.1664 24.7646 61.1664 18.9742C61.1664 13.1838 56.6661 8.70215 50.8516 8.70215ZM50.872 23.987C48.0322 23.987 45.8924 21.698 45.8924 18.9743C45.8924 16.2506 48.0322 14.0008 50.872 14.0008C53.7527 14.0008 55.8108 16.2506 55.8108 18.9743C55.8108 21.698 53.7527 23.987 50.872 23.987Z" fill="#101820"></path>
    <path d="M102.786 8.70215C96.9712 8.70215 92.4709 13.1838 92.4709 18.9742C92.4709 24.7646 96.9712 29.2856 102.786 29.2856C108.6 29.2856 113.1 24.7646 113.1 18.9742C113.1 13.1838 108.6 8.70215 102.786 8.70215ZM102.806 23.987C99.9663 23.987 97.8265 21.698 97.8265 18.9743C97.8265 16.2506 99.9663 14.0008 102.806 14.0008C105.687 14.0008 107.745 16.2506 107.745 18.9743C107.745 21.698 105.687 23.987 102.806 23.987Z" fill="#101820"></path>
    <path d="M5.11227 28.8859H0.531141C0.237804 28.8859 0 28.6506 0 28.3604V14.2856C0 14.0028 0.115236 13.7319 0.31964 13.5341L4.74094 9.25725C5.07724 8.93195 5.64342 9.16766 5.64342 9.633V28.3604C5.64342 28.6506 5.40561 28.8859 5.11227 28.8859Z" fill="#101820"></path>
    <path d="M27.0241 15.7955C27.0241 11.9599 23.8215 8.74435 19.7875 8.6978C17.1621 8.66746 15.3891 9.94082 14.2541 11.6595V9.64411C14.2541 9.35392 14.0163 9.11869 13.723 9.11869H9.14171C8.84842 9.11869 8.6106 9.35392 8.6106 9.64411V28.3605C8.6106 28.6507 8.84842 28.886 9.14171 28.886H13.723C14.0163 28.886 14.2541 28.6507 14.2541 28.3605V17.4751C14.3807 15.3809 15.7221 14.077 17.817 14.077C19.9968 14.077 21.3807 15.5403 21.3807 17.7155V28.3605C21.3807 28.6507 21.6186 28.886 21.9119 28.886H26.493C26.7864 28.886 27.0242 28.6507 27.0242 28.3605L27.0241 15.7955Z" fill="#101820"></path>
  </g>
  <defs>
    <clipPath id="clip0_15_25">
      <rect width="137" height="29" fill="#101820" transform="translate(0 0.285645)"></rect>
    </clipPath>
  </defs>
</svg>
