<?xml version="1.0" encoding="UTF-8"?>
<svg id="a" data-name="Layer 1" xmlns="http://www.w3.org/2000/svg" width="5.78in" height="3.17in" viewBox="0 0 415.85 228.37">
  <line x1=".21" y1="167.46" x2="415.85" y2="167.46" style="fill: none; stroke: #254e84; stroke-miterlimit: 10;"/>
  <g>
    <g>
      <path d="M29.36,48.28h11.74l19.07,29.63,19.07-29.63h11.74v48.12c16.6-17.14,16.17-44.5-.98-61.11-17.14-16.6-44.5-16.17-61.11.98-16.41,16.94-16.2,43.91.46,60.6v-48.59Z" style="fill: #204e84;"/>
      <path d="M79.97,66.01l-19.75,29.56h-.35l-19.67-29.37v38.57c12.49,6.44,27.33,6.39,39.77-.13v-38.63Z" style="fill: #204e84;"/>
    </g>
    <path d="M100.06,105.52l-1.83,1.71-2.19,1.88c-.9.69-1.98,1.41-3.15,2.3-1.3.95-2.66,1.81-4.08,2.58-.76.44-1.52.95-2.37,1.41l-2.68,1.24c-4.13,1.88-8.48,3.25-12.94,4.08-2.55.43-5.12.7-7.7.79-1.31,0-2.82.17-4.01,0l-4.32-.31c-5.87-.68-11.6-2.25-17-4.66-11.72-5.39-21.17-14.75-26.67-26.43-2.74-5.84-4.44-12.11-5.04-18.54-.07-1.58-.13-3.16-.2-4.74v-2.31l.14-2.47c.03-.78.12-1.55.27-2.31l.34-2.22c.24-1.49.57-2.96.97-4.42,1.5-5.6,3.88-10.92,7.05-15.77,2.84-4.33,6.31-8.21,10.3-11.51,1.75-1.49,3.59-2.86,5.52-4.11.89-.62,1.86-1.07,2.74-1.61.86-.52,1.74-.99,2.65-1.41,3.03-1.45,6.17-2.63,9.4-3.54l3.6-.93,1.62-.3v6.33l17.62-10.24L50.51,0v6.55l-3.05.51-4.11,1.03c-3.67,1.06-7.23,2.48-10.62,4.23-1.03.46-2.04.99-3.01,1.57-1,.62-2.07,1.16-3.08,1.89-2.15,1.45-4.21,3.04-6.15,4.75-4.4,3.82-8.2,8.28-11.29,13.22-3.46,5.5-6.01,11.51-7.56,17.82-.43,1.65-.76,3.33-1,5.02l-.34,2.67c-.13.83-.21,1.67-.21,2.51l-.1,2.47v1.95c0,.3,0,.13,0,.21v.49c.1,1.75.21,3.5.31,5.25,2.35,21.36,16.04,39.79,35.81,48.21,5.89,2.44,12.14,3.94,18.5,4.44l4.32.14h2.24l2.13-.16c2.72-.2,5.43-.58,8.1-1.14,4.63-1.09,9.11-2.72,13.35-4.88l2.74-1.41c.87-.47,1.64-1.03,2.41-1.51,1.44-.84,2.82-1.78,4.12-2.82,1.19-.96,2.27-1.79,3.16-2.55l2.1-2.06,1.76-1.71-1.03-1.1.04-.07Z" style="fill: #204e84;"/>
    <g>
      <path d="M227.84,132.62h0c-.13-8.45,6.62-15.39,15.06-15.52.15,0,.3,0,.45,0,4.24-.21,8.39,1.26,11.56,4.08l-3.36,3.99c-2.28-2.16-5.33-3.32-8.47-3.22-5.53,0-9.73,4.84-9.73,10.6v.07c0,6.18,4.08,10.72,10.21,10.72,2.6.03,5.14-.77,7.25-2.27v-5.64h-7.69v-4.64h12.8v12.61c-3.48,3.02-7.92,4.68-12.53,4.68-9.4,0-15.52-6.7-15.52-15.45h-.04Z" style="fill: #204e84;"/>
      <path d="M265.34,117.53h13.39c3.17-.18,6.28.9,8.66,3.01,1.66,1.75,2.56,4.08,2.5,6.49v.08c0,4.92-2.96,7.89-7.17,9.09l8.11,11.37h-6.22l-7.38-10.47h-6.67v10.47h-5.22v-30.04ZM278.35,132.42c3.77,0,6.18-1.98,6.18-5.02v-.08c0-3.22-2.33-4.98-6.22-4.98h-7.75v10.09h7.79Z" style="fill: #204e84;"/>
      <path d="M296.65,132.62h0c-.02-8.67,6.99-15.72,15.66-15.75,8.67-.02,15.72,6.99,15.75,15.66v.08c.02,8.67-6.99,15.72-15.66,15.75-8.67.02-15.72-6.99-15.75-15.66v-.08ZM322.52,132.62h0c.22-5.68-4.21-10.45-9.88-10.67-.11,0-.22,0-.33,0-5.6,0-10.14,4.55-10.14,10.15,0,.15,0,.3.01.45v.08c-.21,5.68,4.23,10.46,9.91,10.67.1,0,.2,0,.3,0,5.6,0,10.14-4.55,10.14-10.15,0-.15,0-.3-.01-.45v-.08Z" style="fill: #204e84;"/>
      <path d="M336.15,134.82v-17.3h5.28v17.09c0,5.64,2.82,8.58,7.59,8.58s7.55-2.82,7.55-8.37v-17.3h5.28v17.04c0,8.96-5.05,13.47-12.91,13.47s-12.78-4.51-12.78-13.22Z" style="fill: #204e84;"/>
      <path d="M371.62,117.53h11.85c6.98,0,11.41,3.99,11.41,10.05v.08c0,6.74-5.4,10.26-12.02,10.26h-5.97v9.65h-5.28v-30.04ZM383.04,133.14c3.99,0,6.49-2.23,6.49-5.36v-.08c0-3.51-2.54-5.36-6.49-5.36h-6.14v10.81h6.14Z" style="fill: #204e84;"/>
      <path d="M402.92,126.46c-1.17,0-2.28-.51-3.03-1.41l.9-.89c.57.62,1.37.99,2.22,1.02,1.19,0,1.76-.41,1.76-1.24s-.49-.99-1.92-1.41c-1.81-.54-2.67-.99-2.67-2.51.07-1.39,1.24-2.45,2.63-2.39.06,0,.13,0,.19.02,1.06-.02,2.08.4,2.82,1.16l-.9.92c-.51-.55-1.24-.85-1.99-.82-1,0-1.41.48-1.41,1.06s.4.89,1.86,1.33,2.72,1.04,2.72,2.57-.97,2.58-3.15,2.58l-.04.03Z" style="fill: #204e84;"/>
      <path d="M413.91,126.32v-6c-.1.24-.34.86-.55,1.41l-2.06,4.8-2.05-4.87c-.21-.48-.45-1.1-.55-1.41v6h-1.21v-8.47h1.31l1.92,4.53c.2.49.47,1.11.58,1.41.13-.35.37-.96.58-1.41l1.86-4.53h1.41v8.47l-1.24.07Z" style="fill: #204e84;"/>
    </g>
    <path d="M116.31,55.56c-3.55,0-6.43-2.86-6.43-6.41,0-3.55,2.86-6.43,6.41-6.43,3.55,0,6.43,2.86,6.43,6.41,0,0,0,.02,0,.03-.04,3.52-2.88,6.37-6.41,6.41ZM110.71,101.58v-42.54h11.19v42.54h-11.19Z" style="fill: #204e84;"/>
    <path d="M158.47,101.58v-22.98c0-7.63-2.6-9.88-7.21-9.88s-7.25,2.24-7.25,9.62v23.24h-11.29v-42.54h11.29v2.82c2.68-2.48,6.23-3.81,9.88-3.71,10.88,0,15.75,7.46,15.75,19.47v23.96h-11.16Z" style="fill: #204e84;"/>
    <path d="M203.66,101.58v-2.68c-2.44,2.29-5.66,3.57-9,3.57-9.09,0-16.55-6.81-16.55-22.71,0-12.7,6-21.66,16.55-21.66,3.31-.03,6.51,1.15,9,3.33v-13.33l11.19-5.64v59.13h-11.19ZM203.66,72.29c-1.75-2.4-4.58-3.77-7.55-3.65-4.3,0-6.65,3.74-6.65,10.88,0,8.76,2.92,12.4,7.29,12.4,2.77.11,5.39-1.24,6.9-3.57v-16.06Z" style="fill: #204e84;"/>
    <path d="M251.23,81.52h-12.49v20.06h-11.36v-56.73h24.82c10.71,0,19.55,5.93,19.55,18,0,13.15-8.76,18.67-20.53,18.67h0ZM251.8,55.88h-13.05v14.66h13.22c5.28,0,8.11-2.44,8.11-7.38s-3.25-7.22-8.28-7.22v-.06Z" style="fill: #204e84;"/>
    <path d="M293.79,102.53c-11.12,0-19.23-9.09-19.23-22.15s8.11-22.22,19.23-22.22,19.3,9.17,19.3,22.22-8.2,22.15-19.3,22.15ZM293.79,68.95c-5.36,0-7.87,4.87-7.87,11.43s2.51,11.29,7.87,11.29,7.94-5.43,7.94-11.29c0-6.49-2.6-11.43-7.94-11.43Z" style="fill: #204e84;"/>
    <path d="M327.31,55.56c-3.55,0-6.43-2.86-6.43-6.41,0-3.55,2.86-6.43,6.41-6.43s6.43,2.86,6.43,6.41c0,0,0,.02,0,.03-.04,3.52-2.88,6.37-6.41,6.41ZM321.78,101.58v-42.54h11.2v42.54h-11.2Z" style="fill: #204e84;"/>
    <path d="M369.48,101.58v-22.98c0-7.63-2.6-9.88-7.22-9.88s-7.29,2.27-7.29,9.65v23.21h-11.2v-42.54h11.2v2.82c2.7-2.51,6.29-3.85,9.97-3.72,10.86,0,15.73,7.46,15.73,19.47v23.97h-11.19Z" style="fill: #204e84;"/>
    <path d="M414.23,99.93c-2.55,1.74-5.59,2.65-8.68,2.6-6.9,0-11.36-5.36-11.36-12.82v-20.1h-7.14v-10.55h7.14v-10.95l11.19-5.64v16.59h10.23v10.55h-10.23v17.11c0,4.05,1.41,5.11,4.13,5.11,2.03,0,3.57-.89,6.33-3.25l-1.62,11.29v.07Z" style="fill: #204e84;"/>
  </g>
  <g>
    <g>
      <path d="M170.16,185.25h3.85l7.1,16.52h-3.48l-1.38-3.28h-8.43l-1.41,3.28h-3.33l7.08-16.52ZM175.11,195.73l-3.08-7.5-3.08,7.5h6.16Z" style="fill: #204e84;"/>
      <path d="M191.21,188.13h-6.07v-2.88h15.36v2.88h-6.07v13.64h-3.23v-13.64Z" style="fill: #204e84;"/>
      <path d="M206.52,195.02l-6.98-9.77h3.92l4.83,6.76,4.73-6.76h3.67l-6.95,9.74v6.78h-3.23v-6.76Z" style="fill: #204e84;"/>
      <path d="M221.81,188.13h-6.07v-2.88h15.36v2.88h-6.07v13.64h-3.23v-13.64Z" style="fill: #204e84;"/>
      <path d="M231.21,193.51c0-6.34,2.34-8.56,8.9-8.56s8.9,2.22,8.9,8.56-2.32,8.56-8.9,8.56-8.9-2.22-8.9-8.56ZM245.73,193.51c0-4.41-1.26-5.72-5.62-5.72s-5.62,1.31-5.62,5.72,1.26,5.72,5.62,5.72,5.62-1.31,5.62-5.72Z" style="fill: #204e84;"/>
      <path d="M260.84,185.25h3.85l7.1,16.52h-3.48l-1.38-3.28h-8.43l-1.41,3.28h-3.33l7.08-16.52ZM265.8,195.73l-3.08-7.5-3.08,7.5h6.16Z" style="fill: #204e84;"/>
      <path d="M275.59,188.13h-6.07v-2.88h15.36v2.88h-6.07v13.64h-3.23v-13.64Z" style="fill: #204e84;"/>
      <path d="M286.39,185.25h3.23v6.66h9.39v-6.66h3.23v16.52h-3.23v-6.98h-9.39v6.98h-3.23v-16.52Z" style="fill: #204e84;"/>
      <path d="M305.52,185.25h14.6v2.84h-11.37v3.9h9.67v2.81h-9.67v4.14h11.57v2.84h-14.8v-16.52Z" style="fill: #204e84;"/>
      <path d="M322.73,185.25h4.07l8.78,11.66v-11.66h3.11v16.52h-3.13l-9.72-12.92v12.92h-3.11v-16.52Z" style="fill: #204e84;"/>
      <path d="M341.96,185.25h14.6v2.84h-11.37v3.9h9.67v2.81h-9.67v4.14h11.57v2.84h-14.8v-16.52Z" style="fill: #204e84;"/>
      <path d="M230.74,216.76c0-6.24,2.47-8.56,8.93-8.56,2.05,0,3.6.22,5.55.86l-.22,2.91c-1.97-.62-3.38-.86-5.23-.86-4.34,0-5.75,1.38-5.75,5.65s1.41,5.65,5.75,5.65c1.85,0,3.28-.25,5.23-.86l.22,2.91c-1.97.64-3.5.86-5.55.86-6.46,0-8.93-2.32-8.93-8.56Z" style="fill: #204e84;"/>
      <path d="M246.89,216.76c0-6.34,2.34-8.56,8.9-8.56s8.9,2.22,8.9,8.56-2.32,8.56-8.9,8.56-8.9-2.22-8.9-8.56ZM261.41,216.76c0-4.41-1.26-5.72-5.62-5.72s-5.62,1.31-5.62,5.72,1.26,5.72,5.62,5.72,5.62-1.31,5.62-5.72Z" style="fill: #204e84;"/>
      <path d="M267.15,208.5h4.76l5.45,11.84,5.45-11.84h4.91v16.52h-3.23v-13.17l-6.02,13.17h-2.29l-5.92-12.95v12.95h-3.11v-16.52Z" style="fill: #204e84;"/>
      <path d="M291,208.5h9.64c4.41,0,6.04,1.48,6.04,5.38s-1.63,5.35-6.04,5.35h-6.41v5.79h-3.23v-16.52ZM300.34,216.39c2.32,0,3.11-.62,3.11-2.52s-.79-2.54-3.11-2.54h-6.12v5.06h6.12Z" style="fill: #204e84;"/>
      <path d="M312.3,208.5h3.85l7.1,16.52h-3.48l-1.38-3.28h-8.43l-1.41,3.28h-3.33l7.08-16.52ZM317.26,218.98l-3.08-7.5-3.08,7.5h6.16Z" style="fill: #204e84;"/>
      <path d="M324.43,208.5h4.07l8.78,11.66v-11.66h3.11v16.52h-3.13l-9.72-12.92v12.92h-3.11v-16.52Z" style="fill: #204e84;"/>
      <path d="M348.18,218.26l-6.98-9.77h3.92l4.83,6.76,4.73-6.76h3.67l-6.95,9.74v6.78h-3.23v-6.76Z" style="fill: #204e84;"/>
    </g>
    <g>
      <g>
        <path d="M405.67,191c-.3-.38-3.3,1.13-3.3,1.13-.4.2-.85.58-1.03,1-.33.83.08,1.63.9,1.8.7.15,1.45-.2,1.88-.8.65-.93,1.83-2.83,1.55-3.13" style="fill: #0093c8;"/>
        <path d="M384.63,191c.3-.38,3.3,1.13,3.3,1.13.4.2.85.58,1.03,1,.33.83-.08,1.63-.9,1.8-.7.15-1.45-.2-1.88-.8-.65-.93-1.8-2.83-1.55-3.13" style="fill: #0093c8;"/>
        <path d="M371.32,183.47c-.3-.8-.6-1.6-.88-2.4-.35-.98-.7-1.95-1.05-2.93t-.03-.05c-.13-.25-.25-.4-.4-.4s-.3.15-.4.4c0,0-.03.03-.03.05-.38.98-.7,1.95-1.05,2.93-.3.8-.58,1.6-.88,2.4-.48,1.2-.53,2.38.53,3.55.28.33.58.65.93.95.23.23.23.43.18.65-.18.65-.33,1.28-.4,1.93-.1.75-.1,1.53-.15,2.3,0,.13.03.2.1.25h.25v33.85h0c.28.18.63.28.98.28s.7-.1.98-.28h0v-33.85h.25c.08-.05.1-.13.08-.25-.03-.78-.05-1.53-.15-2.3-.08-.65-.23-1.28-.4-1.93-.08-.23-.08-.43.15-.65.35-.33.63-.65.93-.95.98-1.15.93-2.35.48-3.55" style="fill: #0093c8;"/>
      </g>
      <path d="M412.68,225.55c-1.05-.98-2.38-2.2-3.5-3.18-4.68-4.2-9.18-8.98-8.13-12.86.7-2.53,3.8-4.48,9.23-5.83,2.1,3.95,3.35,8.78,3.35,14.04.03,2.73-.33,5.38-.95,7.83ZM404.04,223.67l-.15-.18c-.63-.63-1.53-.78-2.33-.28-.23.13-.38.28-.53.45,0,0-.98-.03-1.28-.05-.05-.1-.1-.2-.18-.3-.55-.7-1.65-.9-2.48-.45-.23.13-.38.28-.53.45-.4-.05-.8-.13-1.18-.2,0-.03-.15-.3-.23-.38-.55-.7-1.65-.9-2.48-.45-.05.03-.15.1-.15.13-1.73-.53-3.3-1.23-4.65-2.05.7-1.8,1.73-3.53,3.03-5.1,2.58-3.15,4.85-4.95,7.46-5.88-.98,4.55,4.23,10.26,8.48,14.26-.03,0-2.83.03-2.83.03h0ZM380.08,203.28v-6.73c1.5,1.43,3.6,2.23,5.8,2.23h7.13c.45,1.15,1.03,1.93,2.05,1.93s1.63-.78,2.05-1.93h7.28c2.03-.1,3.9-.83,5.33-2.15v5.23c-5.55,1.33-8.46,3.15-9.96,4.85-3.83.88-7.63,3.33-10.43,6.78-1.4,1.7-2.5,3.6-3.25,5.55-.85-.75-1.65-1.45-2.25-2.3-3.83-5.4-3.75-13.46-3.75-13.46ZM390.16,187.95l-6.35-4.2c3.48-.83,7.28-1.28,11.28-1.28s7.78.45,11.26,1.28l-6.35,4.23c-1.53,1.05-3.1,2.55-3.58,4.88-.68,2.88-.78,5-1.33,4.95-.78.05-.65-2.08-1.33-4.95-.48-2.33-2.08-3.85-3.6-4.9h0ZM381.83,218.07c2.25,2.9,5.78,5.5,10.53,6.75.45.95,1.08,2.08,1.48,2.08.33,0,.73-.8,1.05-1.55.6.1,1.45.23,2,.28.45.9,1,1.8,1.35,1.83.35,0,.78-.88,1.1-1.68.35,0,1.9.03,1.9.03.45.93,1.05,1.98,1.43,1.98s.9-1.13,1.23-1.98l5.48-.03c1.05.93,2.1,1.85,2.55,2.25,1.58.98,2.4-.43,2.43-.43.98-3.13,1.5-6.55,1.5-10.16,0-5.73-1.38-11.03-3.68-15.39h0v-9.01c-.33-.25-.73-.43-1.18-.43s-.85.15-1.18.4l-.08.18c-.8,2.1-2.9,3.55-5.33,3.68h-6.73c.65-2.5,1.28-5.58,3.55-7.06,4.43-2.78,8.91-5.9,11.43-8.11.03-.03.05-.05.08-.05l.23-.2h0c-.08-.4-.28-.83-.6-1.15-.33-.33-.73-.5-1.13-.58l-.03-.03h-.05v.03l-.15.15c-.8.73-1.6,1.43-2.35,2.08-4.13-1.2-8.71-1.88-13.56-1.88s-9.46.68-13.59,1.88c-.78-.65-1.58-1.35-2.38-2.08l-.15-.15v-.03h-.03l-.03.03c-.4.08-.8.25-1.13.58-.35.35-.55.75-.6,1.18h0l.23.2s.05.05.08.05c2.5,2.2,7.01,5.33,11.43,8.11,2.25,1.48,2.9,4.55,3.55,7.06h-6.58c-2.65,0-4.93-1.55-5.73-3.85l-.05-.18c-.33-.25-.73-.43-1.18-.43s-.88.18-1.2.43c0,0,.03,9.88.03,10.21-.03,0-.3,9.41,4.03,14.99Z" style="fill: #0093c8;"/>
    </g>
  </g>
</svg>