<?xml version="1.0" encoding="UTF-8"?>
<svg viewBox="0 0 126 22" version="1.1" xmlns="http://www.w3.org/2000/svg" xmlns:xlink="http://www.w3.org/1999/xlink">
    <title>Logo/Ping Identity/Horizontal</title>
    <g id="Navigation" stroke="none" stroke-width="1" fill="none" fill-rule="evenodd">
        <g id="Unified-Header-Signed-Out" transform="translate(-120.000000, -10.000000)">
            <g id="Stacked-Group" transform="translate(0.000000, -1.000000)">
                <g id="Group" transform="translate(120.000000, 8.000000)">
                    <g transform="translate(-0.000000, 3.000000)" id="PingIdentity_Logo_H">
                        <polygon id="Fill-1" fill="#B8232F" points="0 20.2631579 20.2631579 20.2631579 20.2631579 0 0 0"></polygon>
                        <path d="M103.392705,6.05888303 L105.089766,5.774978 L105.089766,17.3418546 L103.392705,17.3418546 L103.392705,6.05888303 Z M110.049743,7.3653719 L110.049743,14.6594027 C110.049743,15.9095612 110.364638,16.3418029 111.391422,16.3418029 C111.853268,16.3418029 111.731434,16.3470604 112.025711,16.1874577 L112.257009,17.3242044 C111.731434,17.6182489 111.537998,17.7034955 110.803992,17.7034955 C110.258923,17.7034955 109.840187,17.5912103 109.440945,17.3865433 C108.708063,17.0004926 108.435529,16.2734554 108.435529,15.1363331 L108.435529,7.3653719 L107.072482,7.3653719 L107.072482,6.02508481 L108.435529,6.02508481 L108.435529,1.73684211 L110.113471,1.73684211 L110.113471,6.02508481 L112.7346,6.02508481 L112.231517,7.3653719 L110.049743,7.3653719 Z M123.493525,17.0027458 C122.841616,17.0027458 122.314916,16.4435731 122.314916,15.670345 C122.314916,14.8963658 122.841616,14.3379441 123.493525,14.3379441 C124.145808,14.3379441 124.672883,14.8963658 124.672883,15.670345 C124.672883,16.4435731 124.145808,17.0027458 123.493525,17.0027458 Z M123.493525,14.0164855 C122.63506,14.0164855 121.934418,14.7589197 121.934418,15.670345 C121.934418,16.5810192 122.63506,17.3227023 123.493525,17.3227023 C124.353489,17.3227023 125.052632,16.5810192 125.052632,15.670345 C125.052632,14.7589197 124.353489,14.0164855 123.493525,14.0164855 Z M123.222115,15.5283925 L123.222115,14.9921274 L123.514893,14.9921274 C123.683961,14.9921274 123.874023,15.0281788 123.874023,15.2482428 C123.874023,15.5002273 123.705704,15.5283925 123.511144,15.5283925 L123.222115,15.5283925 Z M124.202414,15.2767835 C124.202414,14.882471 123.97299,14.7266236 123.549381,14.7266236 L122.893724,14.7266236 L122.893724,16.6009225 L123.222115,16.6009225 L123.222115,15.7938962 L123.420049,15.7938962 L123.877772,16.6009225 L124.214785,16.6009225 L123.740568,15.7807525 C124.029597,15.7518362 124.202414,15.59674 124.202414,15.2767835 Z M122.790258,6.02508481 L119.20495,17.7493109 C118.491937,20.0231798 117.652591,21.5223185 115.829197,22 L115.346732,20.7956569 C116.367518,20.4490374 116.90284,19.9450684 117.348567,18.7136867 C117.180998,17.8206627 117.086154,17.4323587 117.086154,17.4323587 C116.961321,16.7053215 116.394509,14.4998 116.038377,13.3645555 L113.793248,6.27519162 L115.409711,5.68297175 L117.54875,13.0228179 C117.862521,14.0923438 118.176667,15.8408382 118.176667,15.8408382 L118.219402,15.8408382 C118.219402,15.8408382 118.61677,14.3871393 118.869436,13.4558107 L120.923379,6.02508481 L122.790258,6.02508481 Z M72.2930404,14.4551113 C72.2930404,14.4551113 72.1037283,14.9324172 71.6636246,15.2737792 C70.9918479,15.7953984 70.5093832,16.0004409 69.6516682,16.0004409 C68.6867389,16.0004409 68.0359552,15.6143901 67.5542403,14.6823104 C67.217977,14.0239962 67.1347547,13.0461012 67.1347547,11.7279707 C67.1347547,10.1375768 67.3015743,9.32003547 67.8054068,8.45630325 C68.2458854,7.68382621 68.9375306,7.27486778 69.7566334,7.27486778 C70.9918479,7.27486778 71.7693395,7.66204514 72.2930404,8.45630325 L72.2930404,14.4551113 Z M73.9496149,1.73684211 L72.3136586,1.73684211 L72.3136586,5.50346566 C72.3136586,6.32025591 72.3342767,7.25233564 72.3342767,7.25233564 C71.7063604,6.34353913 70.6773274,5.8211689 69.5047171,5.8211689 C68.7489682,5.8211689 68.1622882,6.02508481 67.4908863,6.52529843 C66.0648603,7.59219549 65.3319788,9.36509976 65.3319788,11.7734105 C65.3319788,15.3856889 66.8835882,17.4992041 69.5868148,17.4992041 C70.8036604,17.4992041 71.6013953,17.1142799 72.3552697,16.1829513 C72.3758879,16.7717913 72.586193,17.3418546 72.586193,17.3418546 L74.2641354,17.3418546 C74.0320875,16.6816627 73.9496149,15.6365467 73.9496149,13.6841364 L73.9496149,1.73684211 Z M98.9144432,6.04799249 L101.611672,6.04799249 L101.109339,7.38827958 L98.8514641,7.38827958 L98.8514641,14.6823104 C98.8514641,15.9328445 99.1656097,16.3654616 100.193143,16.3654616 C100.65499,16.3654616 100.533155,16.3707191 100.827432,16.2103654 L101.058731,17.3474876 C100.533155,17.6419076 100.33972,17.7271543 99.6053386,17.7271543 C99.0606446,17.7271543 98.6419088,17.6144935 98.2426665,17.4102021 C97.509785,17.0237758 97.2365008,16.2963631 97.2365008,15.1596163 L97.2365008,7.38827958 L95.8742036,7.38827958 L95.8742036,6.04799249 L97.2365008,6.04799249 L97.2365008,1.76050086 L98.9144432,1.76050086 L98.9144432,6.04799249 Z M94.1542752,7.4337194 C94.3218445,7.84305337 94.4061915,8.29670055 94.4061915,8.75222542 L94.4061915,17.3426057 L92.7488672,17.3426057 L92.7488672,9.68355407 C92.7488672,8.47845985 92.6648951,8.18441536 92.3713677,7.79723801 C92.1415691,7.50244245 91.6999658,7.31993207 91.2182509,7.31993207 C90.3781551,7.31993207 89.0799615,8.04884696 88.3249625,8.91107704 L88.3249625,17.3426057 L86.7313671,17.3426057 L86.7313671,8.61628147 C86.7313671,7.00222883 86.3339991,6.2297518 86.3339991,6.2297518 L87.926095,5.75207032 C87.926095,5.75207032 88.3050941,6.59139272 88.3050941,7.52497459 C89.3933574,6.34353913 90.4831202,5.774978 91.5957505,5.774978 C92.7282491,5.774978 93.7351645,6.43479431 94.1542752,7.4337194 Z M77.9615316,10.6370393 C78.0440042,8.29594948 78.8833502,7.11526509 80.3716056,7.11526509 C81.1693405,7.11526509 81.902222,7.50244245 82.2583536,8.11494125 C82.573249,8.66021916 82.7202001,9.41053958 82.7408183,10.6370393 L77.9615316,10.6370393 Z M80.4555777,5.72878711 C79.1967461,5.72878711 78.1699623,6.2297518 77.331366,7.29702439 C76.4511585,8.43527324 76.0744087,9.66064639 76.0744087,11.5698701 C76.0744087,15.3199701 77.8130809,17.5912103 80.707494,17.5912103 C82.0499229,17.5912103 83.3083796,17.0917478 84.2294485,16.1829513 L83.6000327,15.0450779 C82.8671513,15.7732418 82.0499229,16.1131016 81.0422578,16.1131016 C79.9933563,16.1131016 79.0291768,15.7048943 78.4424967,14.7277502 C78.0856153,14.1385346 77.9615316,13.3191156 77.9615316,12.2518431 L77.9615316,11.9780775 L84.4806151,11.9780775 L84.4806151,11.7279707 C84.4401285,9.0252399 84.1867127,7.9568407 83.2873866,6.9556624 C82.573249,6.16177982 81.5877015,5.72878711 80.4555777,5.72878711 Z M61.3684211,17.3418546 L63.0463634,17.3418546 L63.0463634,1.75299014 L61.3684211,1.75299014 L61.3684211,17.3418546 Z" id="Fill-3" fill="#263746"></path>
                        <path d="M59.6072734,5.51809791 L60.7894737,7.41921331 C60.1762898,8.0228987 59.5861763,8.26923272 58.8051257,8.26923272 C58.5304072,8.26923272 58.2336809,8.225494 58.0647518,8.20316903 C58.4871504,8.73805707 58.7000952,9.32002497 58.7000952,10.0804408 C58.7000952,12.0477717 57.0094381,13.4803665 54.7078737,13.4803665 C54.5806836,13.4803665 54.4961431,13.4803665 54.2856268,13.4574341 C53.5683231,13.8161523 53.1671734,14.0842038 53.1671734,14.3966015 C53.1671734,14.55318 53.3351918,14.6655642 53.6313111,14.6655642 L53.6313111,14.6655642 L55.152432,14.6878892 C56.7984664,14.7099104 57.6639056,14.9779619 58.4247696,15.7169639 C59.0575328,16.3426706 59.3542592,17.1254113 59.3542592,18.1547898 C59.3542592,19.1162822 59.0792371,19.8537655 58.4871504,20.5241221 C57.5379297,21.5984543 55.910564,22 54.2217282,22 C52.681635,22 51.0972225,21.7322522 50.1264493,20.7701524 C49.5349697,20.1893994 49.2397611,19.5170686 49.2397611,18.7361503 C49.2397611,18.1098361 49.3866824,17.795616 49.4927754,17.5728219 L49.4927754,17.5728219 L52.1114043,17.5728219 C52.0051596,17.8414809 51.9834553,17.9968445 51.9834553,18.3095459 C51.9834553,19.2272996 52.7030357,19.7181452 54.0121225,19.7181452 C54.729578,19.7181452 55.3424583,19.630364 55.7851952,19.3386207 C56.2072904,19.0705692 56.4814018,18.6462429 56.4814018,18.1762036 C56.4814018,17.1483438 55.6165697,16.8344274 54.4961431,16.8121024 L54.4961431,16.8121024 L53.2929975,16.7894737 C52.0265603,16.7662375 51.203619,16.6559795 50.6960728,16.431363 C50.1885265,16.230742 49.8728279,15.7169639 49.8728279,14.9339194 C49.8728279,14.1964361 50.0830407,13.5017803 51.8574794,13.0109347 C50.2946195,12.5853934 49.5349697,11.5342974 49.5349697,9.83532171 C49.5349697,7.48709944 51.330202,5.96672348 54.0954487,5.96672348 C54.7078737,5.96672348 55.2567036,6.05602335 56.0386648,6.25649247 C56.6286266,6.41246351 57.0094381,6.50313022 57.368697,6.50313022 C58.1497475,6.50313022 58.9521988,6.14532323 59.6072734,5.51809791 L59.6072734,5.51809791 Z M41.6564678,5.87696799 C41.9106963,6.34700731 42.0583764,6.83815663 42.0583764,7.30758846 C42.4803198,6.99382393 42.8395787,6.72546869 43.3044753,6.45772093 C43.8742506,6.14532323 44.6140175,5.96672348 45.2466289,5.96672348 C46.4505335,5.96672348 47.5063025,6.63647255 47.8438572,7.62150487 C47.9915374,8.04598302 48.0552842,8.53758796 48.0552842,9.25335381 L48.0552842,17.6174719 L45.267119,17.6174719 L45.267119,10.1701963 C45.267119,8.87367746 45.0567544,8.49384924 44.3172911,8.49384924 C43.7484265,8.49384924 43.0095703,8.89660991 42.3551028,9.52140531 L42.3551028,17.6174719 L39.5242879,17.6174719 L39.5242879,9.32002497 C39.5242879,8.33605575 39.3974013,7.39688834 39.1446907,6.63647255 L41.6564678,5.87696799 Z M37.2218129,5.89777425 L37.2218129,17.6174719 L34.3931229,17.6174719 L34.3931229,6.36750983 L37.2218129,5.89777425 Z M27.0214084,2.07504092 C29.5126954,2.07504092 30.2732559,2.34278868 31.0978668,2.83515297 C32.4687273,3.64052243 33.2069764,5.07129478 33.2069764,6.86139282 C33.2069764,8.91802366 32.2790046,10.5731088 30.6747092,11.3778708 C29.998841,11.7133528 29.3647117,11.89256 27.7394709,11.89256 L27.7394709,11.89256 L26.1142302,11.89256 L26.1142302,17.6174719 L23.1578947,17.6174719 L23.1578947,2.07504092 Z M54.074048,8.15730413 C52.9976371,8.15730413 52.3849086,8.78452945 52.3849086,9.85734294 C52.3849086,11.0205194 53.0607769,11.4893438 54.0532544,11.4893438 C55.1729221,11.4893438 55.7851952,10.9084389 55.7851952,9.85734294 C55.7851952,8.78452945 55.152432,8.15730413 54.074048,8.15730413 Z M27.9918781,4.60125546 L26.1142302,4.60125546 L26.1142302,9.34280556 L27.6553858,9.34280556 C28.8586833,9.34280556 29.218094,9.18607516 29.6180295,8.53758796 C29.8728651,8.11386916 29.9771367,7.66585107 29.9771367,6.92715276 C29.9771367,5.47375171 29.2385841,4.60125546 27.9918781,4.60125546 L27.9918781,4.60125546 Z M35.8492828,1.15789474 C36.799566,1.15789474 37.56043,1.98558917 37.56043,3.01375272 C37.56043,4.04222001 36.7781653,4.87052193 35.8067849,4.87052193 C34.8574124,4.87052193 34.0757547,4.04222001 34.0757547,3.01375272 C34.0757547,1.98558917 34.8783577,1.15789474 35.8492828,1.15789474 Z" id="Path-2" fill="#263746"></path>
                    </g>
                </g>
            </g>
        </g>
    </g>
</svg>