<?xml version="1.0" encoding="UTF-8"?> <svg xmlns="http://www.w3.org/2000/svg" width="221" height="60" viewBox="0 0 221 60" fill="none"><g clip-path="url(#clip0_1781_2872)"><path d="M60.0135 17.8048H58.861V26.0922H53.6426V0H64.4653C70.7197 0 74.8633 3.52989 74.8633 8.90371C74.8633 13.4695 71.8695 16.7301 67.1121 17.5743L75.8941 26.0948H68.6038L60.0135 17.8048ZM58.861 12.9697H64.2737C67.5342 12.9697 69.7122 11.3977 69.7122 8.90371C69.7122 6.40974 67.5239 4.83514 64.2737 4.83514H58.861V12.9697Z" fill="black"></path><path d="M96.4287 20.8763H84.4173L82.2703 26.0948H76.666L87.986 0H92.8548L104.136 26.0948H98.5782L96.4287 20.8763ZM94.5097 16.2328L90.4049 6.25435L86.2975 16.2328H94.5097Z" fill="black"></path><path d="M130.505 12.9308C130.505 20.4412 124.517 26.0948 116.535 26.0948H106.521V0H116.535C124.517 0 130.505 5.56547 130.505 12.9308ZM125.208 12.9308C125.208 8.44273 121.324 4.83514 116.535 4.83514H111.739V21.2596H116.535C121.342 21.2596 125.208 17.5743 125.208 12.9308Z" fill="black"></path><path d="M139.444 0V26.0948H134.226V0H139.444Z" fill="black"></path><path d="M161.585 20.8763H149.571L147.422 26.0948H141.82L153.14 0H158.014L169.295 26.0948H163.732L161.585 20.8763ZM159.671 16.2328L155.566 6.25435L151.459 16.2328H159.671Z" fill="black"></path><path d="M195.043 0V26.0948H191.006L176.886 9.70914V26.0948H171.668V0H175.553L189.828 16.8466V0H195.043Z" fill="black"></path><path d="M221 4.83514H212.135V26.0948H206.917V4.83514H198.052V0H221V4.83514Z" fill="black"></path><path d="M72.6542 53.7901V58.6149H53.6426V32.5331H58.861V53.7901H72.6542Z" fill="black"></path><path d="M99.9348 45.5778C99.9502 48.2676 99.1666 50.9014 97.6834 53.1454C96.2003 55.3894 94.0843 57.1425 91.6036 58.1825C89.1229 59.2226 86.3893 59.5027 83.7493 58.9874C81.1092 58.472 78.6816 57.1845 76.7742 55.2879C74.8667 53.3914 73.5653 50.9712 73.0348 48.3342C72.5044 45.6971 72.7688 42.962 73.7946 40.4754C74.8204 37.9888 76.5613 35.8627 78.7967 34.3667C81.0322 32.8707 83.6615 32.072 86.3513 32.072C88.132 32.06 89.8973 32.4006 91.5457 33.0741C93.194 33.7477 94.6928 34.7408 95.9555 35.9963C97.2182 37.2518 98.2199 38.7448 98.9029 40.3893C99.5859 42.0337 99.9366 43.7971 99.9348 45.5778ZM94.6413 45.5778C94.6413 40.8203 91.1088 36.946 86.3539 36.946C81.5991 36.946 78.0666 40.8307 78.0666 45.5778C78.0666 50.3249 81.5991 54.2122 86.3539 54.2122C91.1088 54.2122 94.6413 50.3275 94.6413 45.5778Z" fill="black"></path><path d="M129.683 44.1121V58.6149H125.614L125.27 54.8545C123.457 57.4651 120.587 59.0759 116.482 59.0759C108.578 59.0759 102.899 53.0909 102.899 45.9534C102.899 37.6661 109.037 32.0618 116.674 32.0618C122.239 32.0618 127.764 35.0167 129.364 41.6155H123.762C122.382 37.78 119.083 36.9358 116.741 36.9358C111.79 36.9358 108.195 40.3879 108.195 45.9534C108.195 50.2887 111.38 54.2019 116.482 54.2019C120.282 54.2019 122.814 52.0161 123.85 48.9446H116.099V44.1121H129.683Z" fill="black"></path><path d="M139.444 32.5331V58.6149H134.226V32.5331H139.444Z" fill="black"></path><path d="M164.157 48.1883H169.528C168.339 54.8259 163.388 59.0861 156.75 59.0861C149.24 59.0861 143.167 53.4844 143.167 45.5778C143.167 37.6711 149.229 32.072 156.75 32.072C163.388 32.072 168.339 36.3322 169.528 42.9699H164.157C163.196 39.1318 160.588 36.946 156.75 36.946C151.993 36.946 148.463 40.437 148.463 45.5778C148.463 50.7185 151.995 54.2121 156.75 54.2121C160.588 54.2121 163.196 52.0263 164.157 48.1883Z" fill="black"></path><path d="M17.6235 41.0896L0 34.1826V41.0896H17.6235Z" fill="#2449FF"></path><path d="M0 16.4219V32.722L18.3254 39.9035L0 16.4219Z" fill="#2449FF"></path><path d="M0 42.4492V58.6277H4.8973L17.5225 42.4492H0Z" fill="#2449FF"></path><path d="M22.0391 42.4492L34.6643 58.6277H39.5616V42.4492H22.0391Z" fill="#2449FF"></path><path d="M20.4619 38.6863L39.5616 14.2102V0H20.4619V38.6863Z" fill="#2449FF"></path><path d="M19.0997 38.6863V0H0V14.2102L19.0997 38.6863Z" fill="#2449FF"></path><path d="M39.5617 16.4219L21.2363 39.9035L39.5617 32.722V16.4219Z" fill="#2449FF"></path><path d="M21.9385 41.0896H39.562V34.1826L21.9385 41.0896Z" fill="#2449FF"></path></g><defs><clipPath id="clip0_1781_2872"><rect width="221" height="59.0861" fill="white"></rect></clipPath></defs></svg> 