<svg xmlns="http://www.w3.org/2000/svg" id="Layer_2" data-name="Layer 2" viewBox="0 0 444.01 98.84"><defs><style> .cls-1 { fill: #f7931e; } .cls-1, .cls-2, .cls-3 { stroke-width: 0px; } .cls-2 { fill: #172554; } .cls-3 { fill: #fff; } </style></defs><g id="Layer_1-2" data-name="Layer 1"><g><g><rect id="SQUARE" class="cls-1" x="0" width="98.84" height="98.84" rx="16.81" ry="16.81"></rect><polygon id="T" class="cls-3" points="27.8 20.85 27.8 30.12 44.02 30.12 44.02 77.99 54.83 77.99 54.83 30.12 71.04 30.12 71.04 20.85 27.8 20.85"></polygon></g><path id="ERAMIND" class="cls-2" d="M310.42,20.85v57.14h-7.72v-40.53l-18.61,40.53h-5.25l-18.61-40.53v40.53h-7.72V20.85h7.72l21.24,46.19,21.24-46.19h7.72ZM322.01,20.85v57.14h7.72V20.85h-7.72ZM143.63,27.03v-6.18h-30.89v57.14h30.89v-6.18h-23.17v-19.3h20.08v-6.18h-20.08v-19.3h23.17ZM245.78,77.99h-7.38l-4.39-12.36h-25.56l-4.39,12.36h-7.38l20.32-57.14h8.46l20.32,57.14ZM231.81,59.46l-10.58-29.75-10.58,29.75h21.16ZM378.38,20.85v45.1l-29.34-45.1h-7.72v57.14h7.72v-45.05l29.34,45.05h7.72V20.85h-7.72ZM444.01,49.42c0,15.78-12.81,28.57-28.57,28.57h-19.3V20.85h19.3c15.78,0,28.57,12.8,28.57,28.57ZM436.68,49.42c0-12.4-10.04-22.39-22.39-22.39h-10.42v44.79h10.42c12.37,0,22.39-10.02,22.39-22.39ZM191.59,77.99h-8.05l-13.1-22.39h-10.59v22.39h-7.72V20.85h21.62c9.6,0,17.37,7.78,17.37,17.37,0,8.07-5.52,14.87-12.97,16.81l13.44,22.96ZM173.36,49.42c6.19,0,11.2-5.01,11.2-11.2s-5.05-11.2-11.2-11.2h-13.51v22.39h13.51Z"></path></g></g></svg>